/* XPM */
static char *rpdchain161699991610[] = {
/* columns rows colors chars-per-pixel */
"17 17 3 1 ",
"  c None",
". c #F1583A",
"X c #F1593B",
/* pixels */
"                 ",
"                 ",
"                 ",
"                 ",
" XXXXX      XXXXX",
" XXXXXXX  XXXXXXX",
"                 ",
"     XX..X..X    ",
"     X.X..X..    ",
"                 ",
" XXXXXXX  XXXXXXX",
" XXXXX      XXXXX",
"                 ",
"                 ",
"                 ",
"                 ",
"                 "
};
