<?xml version="1.0" encoding="utf-8"?>
<!-- Generator: Adobe Illustrator 28.0.0, SVG Export Plug-In . SVG Version: 6.00 Build 0)  -->
<svg version="1.1" id="Layer_1" xmlns="http://www.w3.org/2000/svg" xmlns:xlink="http://www.w3.org/1999/xlink" x="0px" y="0px"
	 viewBox="0 0 256 256" style="enable-background:new 0 0 256 256;" xml:space="preserve">
<style type="text/css">
	.st0{fill:#3C3C3B;}
	.st1{fill:none;}
	.st2{fill:#F1593B;}
	.st3{fill:#F1583A;}
</style>
<path class="st0" d="M226.9,256H29.1C13,256,0,243,0,226.9V29.1C0,13,13,0,29.1,0h197.7C243,0,256,13,256,29.1v197.7
	C256,243,243,256,226.9,256z"/>
<rect class="st1" width="256" height="256"/>
<g>
	<path class="st2" d="M190.9,148.1h-49.4c-0.8,0-1.3,0.8-0.8,1.5c8,11.8,22.1,19.7,38.4,19.7h37.7c0.6,0,1-0.4,1-1v-19.4
		c0-0.6-0.4-1-1-1L190.9,148.1L190.9,148.1z"/>
	<path class="st2" d="M140.7,106.3c-0.6,0.7,0.1,1.7,1,1.7h37.7h11.4h25.6c0.7,0,1.1-0.6,1.1-1.1v-19c0-0.6-0.4-1-1-1H179
		C162.9,86.9,148.7,94.6,140.7,106.3L140.7,106.3z"/>
	<g>
		<path class="st2" d="M65,107.9h49.4c0.8,0,1.3-0.8,0.8-1.5c-8-11.8-22.1-19.7-38.4-19.7H39.2c-0.6,0.1-1,0.6-1,1.1v19.2
			c0,0.6,0.4,1,1,1L65,107.9L65,107.9z"/>
		<path class="st2" d="M115.2,149.7c0.6-0.7-0.1-1.7-1-1.7H76.3H65H39.3c-0.7,0-1.1,0.6-1.1,1.1v19c0,0.6,0.4,1,1,1h37.6
			C93.1,169.1,107.2,161.4,115.2,149.7L115.2,149.7z"/>
	</g>
	<path class="st3" d="M90.4,117.9h77.3c3.9,0,7,3.2,7,7v6c0,3.9-3.2,7-7,7H90.4c-3.9,0-7-3.2-7-7v-6
		C83.4,121.1,86.6,117.9,90.4,117.9z"/>
</g>
</svg>
