/* XPM */
static char *rpdchain641699991703[] = {
/* columns rows colors chars-per-pixel */
"65 65 3 1 ",
"  c None",
". c #F1583A",
"X c #F1593B",
/* pixels */
"                                                                 ",
"                                                                 ",
"                                                                 ",
"                                                                 ",
"                                                                 ",
"                                                                 ",
"                                                                 ",
"                                                                 ",
"                                                                 ",
"                                                                 ",
"                                                                 ",
"                                                                 ",
"                                                                 ",
"                                                                 ",
"                                                                 ",
"                                                                 ",
"                                                                 ",
"XXXXXXXXXXXXXXXXX                              XXXXXXXXXXXXXXXXX ",
"XXXXXXXXXXXXXXXXXXXXX                      XXXXXXXXXXXXXXXXXXXXX ",
"XXXXXXXXXXXXXXXXXXXXXXX                  XXXXXXXXXXXXXXXXXXXXXXX ",
"XXXXXXXXXXXXXXXXXXXXXXXX                XXXXXXXXXXXXXXXXXXXXXXXX ",
"XXXXXXXXXXXXXXXXXXXXXXXXX              XXXXXXXXXXXXXXXXXXXXXXXXX ",
"XXXXXXXXXXXXXXXXXXXXXXXXXX            XXXXXXXXXXXXXXXXXXXXXXXXXX ",
"XXXXXXXXXXXXXXXXXXXXXXXXXXX          XXXXXXXXXXXXXXXXXXXXXXXXXXX ",
"XXXXXXXXXXXXXXXXXXXXXXXXXXX          XXXXXXXXXXXXXXXXXXXXXXXXXXX ",
"                                                                 ",
"                                                                 ",
"                                                                 ",
"                 X......X...........X.........X                  ",
"                ................................                 ",
"                ................................X                ",
"                .................................                ",
"                .................................                ",
"                .................................                ",
"                ...............................X                 ",
"                  .....X.......X...........X...                  ",
"                                                                 ",
"                                                                 ",
"                                                                 ",
"XXXXXXXXXXXXXXXXXXXXXXXXXXX          XXXXXXXXXXXXXXXXXXXXXXXXXXX ",
"XXXXXXXXXXXXXXXXXXXXXXXXXXX          XXXXXXXXXXXXXXXXXXXXXXXXXXX ",
"XXXXXXXXXXXXXXXXXXXXXXXXXX            XXXXXXXXXXXXXXXXXXXXXXXXXX ",
"XXXXXXXXXXXXXXXXXXXXXXXXX              XXXXXXXXXXXXXXXXXXXXXXXXX ",
"XXXXXXXXXXXXXXXXXXXXXXXX                XXXXXXXXXXXXXXXXXXXXXXXX ",
"XXXXXXXXXXXXXXXXXXXXXXX                  XXXXXXXXXXXXXXXXXXXXXXX ",
"XXXXXXXXXXXXXXXXXXXXX                      XXXXXXXXXXXXXXXXXXXXX ",
"XXXXXXXXXXXXXXXXX                              XXXXXXXXXXXXXXXXX ",
"                                                                 ",
"                                                                 ",
"                                                                 ",
"                                                                 ",
"                                                                 ",
"                                                                 ",
"                                                                 ",
"                                                                 ",
"                                                                 ",
"                                                                 ",
"                                                                 ",
"                                                                 ",
"                                                                 ",
"                                                                 ",
"                                                                 ",
"                                                                 ",
"                                                                 ",
"                                                                 "
};
