<?xml version="1.0" encoding="utf-8"?>
<!-- Generator: Adobe Illustrator 28.0.0, SVG Export Plug-In . SVG Version: 6.00 Build 0)  -->
<svg version="1.1" id="ic-transaction-mint" xmlns="http://www.w3.org/2000/svg" xmlns:xlink="http://www.w3.org/1999/xlink"
	 x="0px" y="0px" viewBox="0 0 600 600" style="enable-background:new 0 0 600 600;" xml:space="preserve">
<style type="text/css">
	.st0{fill:#D1D5DB;}
	.st1{fill:none;}
</style>
<g id="Group_8823">
	<path id="Path_18880" class="st0" d="M200,300c0,55,45,100,100,100s100-45,100-100s-45-100-100-100S200,245,200,300z M350,300
		c0,27.5-22.5,50-50,50s-50-22.5-50-50s22.5-50,50-50S350,272.5,350,300z"/>
	<path id="Path_18881" class="st0" d="M175,200h-47.5c55-95,177.5-127.5,272.5-72.5c62.5,35,100,102.5,100,172.5h50
		c0-137.5-112.5-250-250-250c-77.5,0-152.5,37.5-200,100v-25H50v125h125V200z"/>
	<path id="Path_18882" class="st0" d="M425,400h47.5c-55,95-177.5,127.5-272.5,72.5C137.5,437.5,100,370,100,300H50
		c0,137.5,112.5,250,250,250c80,0,152.5-37.5,200-100v25h50V350H425V400z"/>
</g>
<path id="Rectangle_4408" class="st1" d="M0,0h600v600H0V0z"/>
</svg>
