<?xml version="1.0" encoding="utf-8"?>
<!-- Generator: Adobe Illustrator 28.0.0, SVG Export Plug-In . SVG Version: 6.00 Build 0)  -->
<svg version="1.1" id="ic-transaction-staked" xmlns="http://www.w3.org/2000/svg" xmlns:xlink="http://www.w3.org/1999/xlink"
	 x="0px" y="0px" viewBox="0 0 50 50" style="enable-background:new 0 0 50 50;" xml:space="preserve">
<style type="text/css">
	.st0{fill:none;}
	.st1{fill:#D1D5DB;}
</style>
<rect class="st0" width="50" height="50"/>
<g>
	<path class="st1" d="M0,49.1h4.7c2.8,0,5.1-2.3,5.1-5.1V30.8H0V49.1z M2,32.9h5.7V44c0,1.7-1.4,3.1-3.1,3.1H2V32.9z"/>
	<path class="st1" d="M49.6,33c-0.9-1.6-2.9-2.2-4.5-1.3l-9.7,5.1c-0.7,0.4-1.4,0.7-2.2,0.9c0.4-0.7,0.6-1.5,0.6-2.3
		c0-1.2-1-2.3-2.3-2.3h-7.2c-0.6,0-1.1-0.2-1.6-0.6c-4.4-4-7.4-2.4-9.6-1.2c-0.6,0.3-1.2,0.7-1.8,0.8v2.1c1-0.2,1.9-0.7,2.8-1.2
		c2.1-1.1,3.9-2.1,7.3,0.9c0.8,0.7,1.8,1.1,2.9,1.1h7.2c0.1,0,0.3,0.1,0.3,0.3c0,1.6-1.3,2.9-2.9,2.9H27h-4c-0.6,0-1,0.5-1,1
		c0,0.6,0.5,1,1,1h4h1.9h0.4c2.4,0,4.9-0.6,7-1.7l9.7-5.1c0.6-0.3,1.4-0.2,1.8,0.4c0.5,0.6,0.3,1.5-0.4,2l-11.8,7.6
		c-2.1,1.3-4.5,2-6.9,2H18c-1.2,0-2.4-0.2-3.6-0.6l-3.2-1V44c0,0.7-0.1,1.3-0.3,2l2.9,0.9c1.4,0.4,2.8,0.7,4.2,0.7h10.6
		c2.8,0,5.6-0.8,8-2.4l11.8-7.6C50,36.6,50.4,34.6,49.6,33z"/>
	<path class="st1" d="M8.8,22.7h0.4v6.7h2v-6.7h10v7c0.6,0.4,1.3,0.8,2,1.4V14.9h3.5v16.7h2v-9h10.4V33l2-1.1v-9.4h0.4
		c0.8,0,1.5-0.7,1.5-1.5v-3.6c0-2.6-2.1-4.7-4.7-4.7h-6.8c4.6-0.9,6.4-3,7.1-4.8c0.8-2.2,0-4.6-1.3-5.7c-1.4-1.2-2.7-1.7-4-1.5
		c-2.4,0.4-4,3.1-5.7,5.9c-0.8,1.4-1.7,2.8-2.6,4c-0.7-0.9-1.3-1.9-1.9-2.9c-1.4-2.3-2.7-4.5-4.7-4.8c-1.1-0.2-2.2,0.2-3.4,1.2
		c-1,1.2-1.7,3.1-1,5c0.5,1.4,1.9,3.1,5.4,3.9H12c-2.6,0-4.7,2.1-4.7,4.7v3.6C7.3,22,8,22.7,8.8,22.7z M38.4,14.9
		c1.5,0,2.6,1.2,2.6,2.6v3.1H28.7v-5.7C28.7,14.9,38.4,14.9,38.4,14.9z M29.5,7.9c1.5-2.4,2.8-4.7,4.3-5c0.1,0,0.2,0,0.3,0
		c0.6,0,1.3,0.3,2.1,1c0.6,0.5,1.2,2,0.7,3.5c-0.5,1.4-2.5,3.7-9.5,4C28.1,10.3,28.8,9.1,29.5,7.9z M24.6,12.9l0.5-0.5l0.5,0.5H24.6
		L24.6,12.9z M15.9,8.4c-0.4-1,0.1-2.1,0.5-2.5C17,5.4,17.6,5.1,18,5.1c0.1,0,0.1,0,0.2,0c1.1,0.2,2.2,2,3.3,3.8
		c0.5,0.8,1,1.6,1.5,2.4C19.1,11.1,16.5,10.1,15.9,8.4z M9.3,17.6c0-1.5,1.2-2.6,2.6-2.6h9.3v5.7H9.3V17.6z"/>
	<path class="st1" d="M6.1,44.1c0-0.7-0.6-1.3-1.3-1.3s-1.3,0.6-1.3,1.3s0.6,1.3,1.3,1.3C5.5,45.4,6.1,44.8,6.1,44.1z"/>
</g>
</svg>
