<?xml version="1.0" encoding="utf-8"?>
<!-- Generator: Adobe Illustrator 27.7.0, SVG Export Plug-In . SVG Version: 6.00 Build 0)  -->
<svg version="1.1" id="ic_piv" xmlns="http://www.w3.org/2000/svg" xmlns:xlink="http://www.w3.org/1999/xlink" x="0px" y="0px"
	 viewBox="0 0 24 24" style="enable-background:new 0 0 24 24;" xml:space="preserve">
<style type="text/css">
	.st0{fill:none;}
	.st1{fill:#F0593A;}
	.st2{fill:#F0583A;}
</style>
<path id="Rectangle_4543" class="st0" d="M0,0h24v24H0V0z"/>
<path class="st1" d="M19.2,14.4l-5.7,0c-0.1,0-0.2,0.1-0.1,0.2c0.9,1.4,2.6,2.4,4.4,2.4h4.3c0.1,0,0.1-0.1,0.1-0.1v-2.3
	c0-0.1-0.1-0.1-0.1-0.1L19.2,14.4L19.2,14.4z"/>
<path class="st1" d="M13.5,9.4c-0.1,0.1,0,0.2,0.1,0.2l4.3,0h1.3h3c0.1,0,0.1-0.1,0.1-0.1V7.2c0-0.1-0.1-0.1-0.1-0.1h-4.3
	C16,7.1,14.4,8,13.5,9.4z"/>
<g>
	<path class="st1" d="M4.8,9.6l5.7,0c0.1,0,0.2-0.1,0.1-0.2C9.6,8,8,7.1,6.1,7.1H1.8c-0.1,0-0.1,0.1-0.1,0.1v2.3
		c0,0.1,0.1,0.1,0.1,0.1L4.8,9.6L4.8,9.6z"/>
	<path class="st1" d="M10.5,14.6c0.1-0.1,0-0.2-0.1-0.2l-4.3,0H4.8h-3c-0.1,0-0.1,0.1-0.1,0.1v2.3c0,0.1,0.1,0.1,0.1,0.1h4.3
		C8,16.9,9.6,16,10.5,14.6z"/>
</g>
<path class="st2" d="M16.2,13.2H8.1c-0.7,0-1.2-0.5-1.2-1.2v0c0-0.7,0.5-1.2,1.2-1.2h8.1c0.7,0,1.2,0.5,1.2,1.2v0
	C17.4,12.7,16.9,13.2,16.2,13.2z"/>
</svg>
