<?xml version="1.0" encoding="utf-8"?>
<!-- Generator: Adobe Illustrator 27.2.0, SVG Export Plug-In . SVG Version: 6.00 Build 0)  -->
<svg version="1.1" id="ic_peers_connection" shape-rendering="geometricPrecision"
	 xmlns="http://www.w3.org/2000/svg" xmlns:xlink="http://www.w3.org/1999/xlink" x="0px" y="0px" viewBox="0 0 24 24"
	 style="enable-background:new 0 0 24 24;" xml:space="preserve">
<style type="text/css">
	.st0{fill:none;}
	.st1{fill:#3C3C3B;}
</style>
<path id="Rectangle_4410" class="st0" d="M0,0h24v24H0V0z"/>
<path class="st1" d="M6.4,5.4c0.1,0,0.2,0,0.3-0.1c1.6-1.6,3.7-2.5,6-2.5c1.6,0,3.1,0.4,4.4,1.2C17,4.3,16.9,4.7,16.9,5
	c0,1.2,0.9,2.1,2.1,2.1c1.2,0,2.1-0.9,2.1-2.1S20.2,2.9,19,2.9c-0.5,0-1,0.2-1.4,0.5C16.2,2.5,14.5,2,12.7,2c-2.5,0-4.8,1-6.6,2.7
	C6,4.9,6,5.1,6.1,5.3C6.2,5.4,6.3,5.4,6.4,5.4z M19,3.7c0.7,0,1.3,0.6,1.3,1.3c0,0.7-0.6,1.3-1.3,1.3c-0.7,0-1.3-0.6-1.3-1.3
	C17.7,4.3,18.3,3.7,19,3.7z"/>
<path class="st1" d="M10.5,19.5c-2.2-0.6-4-2-5.1-4c-0.8-1.4-1.2-2.9-1.1-4.5c0.3,0,0.6-0.1,0.9-0.3c1-0.6,1.4-1.9,0.8-2.9
	C5.3,6.9,4,6.6,3,7.2C2,7.7,1.7,9,2.3,10C2.5,10.5,3,10.8,3.4,11c-0.1,1.7,0.4,3.5,1.2,5c1.2,2.1,3.2,3.7,5.6,4.3c0,0,0.1,0,0.1,0
	c0.2,0,0.4-0.1,0.4-0.3C10.9,19.8,10.7,19.5,10.5,19.5z M3,9.6C2.6,9,2.9,8.2,3.5,7.9c0,0,0,0,0,0c0.2-0.1,0.4-0.2,0.6-0.2
	c0.4,0,0.9,0.2,1.1,0.6c0.4,0.6,0.1,1.4-0.5,1.7C4.1,10.4,3.3,10.2,3,9.6z"/>
<path class="st1" d="M21.2,8.6c-0.2,0.1-0.4,0.3-0.3,0.5c0.6,2.2,0.3,4.5-0.9,6.4c-0.8,1.4-1.9,2.5-3.3,3.2
	c-0.2-0.3-0.4-0.5-0.7-0.6c-0.5-0.3-1.1-0.4-1.6-0.2c-0.5,0.1-1,0.5-1.3,1c-0.3,0.5-0.4,1.1-0.2,1.6c0.1,0.5,0.5,1,1,1.3h0
	c0.3,0.2,0.7,0.3,1,0.3c0.2,0,0.4,0,0.5-0.1c0.5-0.1,1-0.5,1.3-1c0.3-0.4,0.3-1,0.2-1.5c1.5-0.8,2.8-2,3.7-3.6
	c1.2-2.1,1.6-4.7,0.9-7.1C21.6,8.7,21.4,8.5,21.2,8.6z M16.1,20.5c-0.2,0.3-0.4,0.5-0.8,0.6c-0.3,0.1-0.7,0-1-0.1h0
	c-0.3-0.2-0.5-0.4-0.6-0.8c-0.1-0.3,0-0.7,0.1-1s0.4-0.5,0.8-0.6c0.3-0.1,0.7,0,1,0.1c0.3,0.2,0.5,0.4,0.6,0.8
	C16.3,19.9,16.3,20.2,16.1,20.5z"/>
<path class="st1" d="M17,14c0.1-0.1,0.2-0.2,0.2-0.4l0-4.7c0,0,0,0,0,0c0-0.1,0-0.1-0.1-0.2c0-0.1-0.1-0.1-0.1-0.1c0,0,0,0,0,0
	l-4.1-2.4c-0.1-0.1-0.3-0.1-0.4,0L8.4,8.6c0,0,0,0,0,0c0,0-0.1,0.1-0.1,0.1c0,0,0,0,0,0c0,0.1,0,0.1,0,0.2c0,0,0,0,0,0l0,4.7
	c0,0.1,0.1,0.3,0.2,0.4l4.1,2.4c0,0,0,0,0,0c0.1,0,0.1,0.1,0.2,0.1c0,0,0,0,0,0c0,0,0,0,0,0s0,0,0,0c0.1,0,0.1,0,0.2-0.1
	c0,0,0,0,0,0L17,14z M16.4,13.4l-3.3,1.9v-3.8l3.3-1.9L16.4,13.4z M12.3,15.3L9,13.4l0-3.8l3.3,1.9V15.3z M12.7,10.8L9.4,8.9L12.7,7
	L16,8.9L12.7,10.8z"/>
</svg>
