<?xml version="1.0" encoding="utf-8"?>
<!-- Generator: Adobe Illustrator 27.2.0, SVG Export Plug-In . SVG Version: 6.00 Build 0)  -->
<svg version="1.1" id="ic-transaction-staked" xmlns="http://www.w3.org/2000/svg" xmlns:xlink="http://www.w3.org/1999/xlink"
	 x="0px" y="0px" viewBox="0 0 24 24" style="enable-background:new 0 0 24 24;" xml:space="preserve">
<style type="text/css">
	.st0{fill:none;}
	.st1{fill:#3C3C3B;}
</style>
<path id="Rectangle_4527" class="st0" d="M0,0h24v24H0V0z"/>
<path class="st1" d="M20.9,13.7c-0.1-0.2-0.3-0.3-0.5-0.3l-3.6,1l-2.7-1.5c0.1-0.3,0.2-0.5,0.2-0.8s-0.1-0.6-0.2-0.9l2.7-1.6l3.6,1
	h0.1c0.2,0,0.3-0.1,0.4-0.3s-0.1-0.4-0.3-0.5L17.8,9l2.4-1.4c0.2-0.1,0.2-0.3,0.1-0.5C20.2,7,20,6.9,19.8,7l-2.4,1.4l0.8-2.8
	c0.1-0.2-0.1-0.4-0.3-0.5c-0.2-0.1-0.4,0.1-0.5,0.3l-1,3.6l-2.7,1.6c-0.4-0.4-0.9-0.7-1.5-0.8V6.5L15,3.9c0.1-0.1,0.1-0.4,0-0.5
	s-0.4-0.1-0.5,0l-2.1,2.1V2.8c0-0.2-0.2-0.4-0.4-0.4s-0.4,0.2-0.4,0.4v2.7L9.5,3.4C9.4,3.3,9.1,3.3,9,3.4C8.8,3.5,8.8,3.8,9,3.9
	l2.6,2.6v3.1c-0.6,0.1-1.1,0.4-1.4,0.8L7.4,8.9L6.5,5.4c0-0.2-0.3-0.3-0.5-0.3C5.8,5.2,5.7,5.4,5.8,5.6l0.8,2.8L4.2,7
	C4,6.9,3.8,7,3.7,7.2s0,0.4,0.1,0.5l2.4,1.4L3.3,9.8C3.1,9.9,3,10.1,3.1,10.3c0,0.2,0.2,0.3,0.4,0.3h0.1l3.6-1l2.7,1.5
	c-0.1,0.3-0.2,0.5-0.2,0.8s0.1,0.6,0.1,0.8L7,14.4l-3.5-0.9c-0.2-0.1-0.4,0.1-0.5,0.3s0.1,0.4,0.3,0.5L6.1,15l-2.3,1.3
	c-0.2,0.1-0.2,0.3-0.1,0.5C3.8,16.9,3.9,17,4,17s0.1,0,0.2-0.1l2.4-1.4l-0.8,2.9c-0.1,0.2,0.1,0.4,0.3,0.5h0.1
	c0.2,0,0.3-0.1,0.4-0.3l1-3.6l2.7-1.5c0.4,0.4,0.9,0.8,1.4,0.9v3.2L9,20c-0.1,0.1-0.1,0.4,0,0.5s0.2,0.1,0.3,0.1s0.2,0,0.3-0.1l2-2
	v2.7c0,0.2,0.2,0.4,0.4,0.4s0.4-0.2,0.4-0.4v-2.8l2.1,2.1c0.1,0.1,0.2,0.1,0.3,0.1s0.2,0,0.3-0.1s0.1-0.4,0-0.5l-2.7-2.7v-3.1
	c0.6-0.1,1.1-0.4,1.5-0.8l2.7,1.6l0.9,3.5c0,0.2,0.2,0.3,0.4,0.3H18c0.2-0.1,0.3-0.3,0.3-0.5l-0.8-2.8l2.3,1.4
	c0.1,0,0.1,0.1,0.2,0.1s0.3-0.1,0.3-0.2c0.1-0.2,0-0.4-0.1-0.5l-2.4-1.4l2.9-0.8C20.9,14.1,21,13.9,20.9,13.7z M12,13.6
	c-0.9,0-1.6-0.7-1.6-1.6c0-0.9,0.7-1.6,1.6-1.6c0.9,0,1.6,0.7,1.6,1.6C13.6,12.9,12.9,13.6,12,13.6z"/>
<rect class="st0" width="24" height="24"/>
</svg>
