<?xml version="1.0" encoding="utf-8"?>
<!-- Generator: Adobe Illustrator 28.1.0, SVG Export Plug-In . SVG Version: 6.00 Build 0)  -->
<svg version="1.1" id="Layer_1" xmlns="http://www.w3.org/2000/svg" xmlns:xlink="http://www.w3.org/1999/xlink" x="0px" y="0px"
	 viewBox="0 0 18 17" style="enable-background:new 0 0 18 17;" xml:space="preserve">
<style type="text/css">
	.st0{fill:none;}
	.st1{opacity:0.6955;fill-rule:evenodd;clip-rule:evenodd;fill:#D1D5DB;enable-background:new    ;}
</style>
<g id="Page-1">
	<g id="ic-close-white" transform="translate(-1.000000, -2.000000)">
		<g id="ic_close">
			<polygon id="Rectangle_3745" class="st0" points="2.9,3.4 17.1,3.4 17.1,17.6 2.9,17.6 			"/>
			<path id="Path_18563" class="st1" d="M15.6,15.6l-4.8-4.8l4.8-4.8l0.4-0.4l-0.4-0.4c-0.2-0.2-0.6-0.2-0.8,0L10,9.9L5.2,5.2
				C5,4.9,4.7,4.9,4.4,5.2L4.1,5.5l0.4,0.4l4.8,4.8l-4.8,4.8c-0.2,0.2-0.2,0.6,0,0.8l0.4,0.4l0.4-0.4l4.8-4.8l4.8,4.8l0.4,0.4
				l0.4-0.4C15.8,16.1,15.8,15.7,15.6,15.6z"/>
		</g>
	</g>
</g>
</svg>
