<?xml version="1.0" encoding="utf-8"?>
<!-- Generator: Adobe Illustrator 27.2.0, SVG Export Plug-In . SVG Version: 6.00 Build 0)  -->
<svg version="1.1" id="ic_piv" xmlns="http://www.w3.org/2000/svg" xmlns:xlink="http://www.w3.org/1999/xlink" x="0px" y="0px"
	 viewBox="0 0 24 24" style="enable-background:new 0 0 24 24;" xml:space="preserve">
<style type="text/css">
	.st0{fill:#FF5533;}
	.st1{fill:#FFFFFF;}
	.st2{fill:none;}
</style>
<circle class="st0" cx="12" cy="12" r="10.3"/>
<g>
	<path class="st1" d="M17.2,13.7l-4.1,0c-0.1,0-0.1,0.1-0.1,0.1c0.7,1,1.8,1.7,3.2,1.7h3.1c0,0,0.1,0,0.1-0.1v-1.7
		c0,0,0-0.1-0.1-0.1L17.2,13.7L17.2,13.7z"/>
	<path class="st1" d="M13.1,10.1c0,0.1,0,0.1,0.1,0.1l3.1,0h0.9h2.1c0.1,0,0.1,0,0.1-0.1V8.5c0,0,0-0.1-0.1-0.1h-3.1
		C14.9,8.4,13.7,9.1,13.1,10.1z"/>
	<g>
		<path class="st1" d="M6.8,10.3l4.1,0c0.1,0,0.1-0.1,0.1-0.1c-0.7-1-1.8-1.7-3.2-1.7H4.6c0,0-0.1,0-0.1,0.1v1.7c0,0,0,0.1,0.1,0.1
			L6.8,10.3L6.8,10.3z"/>
		<path class="st1" d="M10.9,13.9c0-0.1,0-0.1-0.1-0.1l-3.1,0H6.8H4.6c-0.1,0-0.1,0-0.1,0.1v1.6c0,0,0,0.1,0.1,0.1h3.1
			C9.1,15.6,10.3,14.9,10.9,13.9z"/>
	</g>
	<path class="st1" d="M15,12.9H9.2c-0.5,0-0.9-0.4-0.9-0.9v0c0-0.5,0.4-0.9,0.9-0.9H15c0.5,0,0.9,0.4,0.9,0.9v0
		C15.9,12.5,15.5,12.9,15,12.9z"/>
</g>
<path id="Rectangle_4543" class="st2" d="M0,0h24v24H0V0z"/>
</svg>
