<?xml version="1.0" encoding="UTF-8"?>
<svg id="ic_piv" data-name="ic piv" xmlns="http://www.w3.org/2000/svg" viewBox="0 0 24 24">
  <defs>
    <style>
      .cls-1 {
        fill: none;
      }

      .cls-2 {
        fill: #f0583a;
      }

      .cls-3 {
        fill: #f0593a;
      }
    </style>
  </defs>
  <path id="Rectangle_4543" data-name="Rectangle 4543" class="cls-1" d="m0,0h24v24H0V0Z"/>
  <path class="cls-3" d="m19.25,14.4h-5.69c-.09,0-.15.1-.1.18.91,1.41,2.55,2.35,4.42,2.35h4.34c.06,0,.11-.05.11-.11v-2.3c0-.06-.05-.11-.11-.11h-2.97Z"/>
  <path class="cls-3" d="m13.47,9.39c-.06.09,0,.2.11.2h4.35s1.31,0,1.31,0h2.95c.07,0,.13-.06.13-.13v-2.28c0-.06-.05-.12-.12-.12h-4.33c-1.86,0-3.49.93-4.41,2.33Z"/>
  <g>
    <path class="cls-3" d="m4.75,9.6h5.69c.09,0,.15-.1.1-.18-.91-1.41-2.55-2.35-4.42-2.35H1.78c-.06,0-.11.05-.11.11v2.3c0,.06.05.11.11.11h2.97Z"/>
    <path class="cls-3" d="m10.53,14.61c.06-.09,0-.2-.11-.2h-4.35s-1.31,0-1.31,0H1.8c-.07,0-.13.06-.13.13v2.28c0,.06.05.12.12.12h4.33c1.86,0,3.49-.93,4.41-2.33Z"/>
  </g>
  <rect class="cls-2" x="6.86" y="10.79" width="10.53" height="2.42" rx="1.21" ry="1.21"/>
</svg>