<?xml version="1.0" encoding="utf-8"?>
<!-- Generator: Adobe Illustrator 28.0.0, SVG Export Plug-In . SVG Version: 6.00 Build 0)  -->
<svg version="1.1" id="ic_light_theme" shape-rendering="geometricPrecision"
	 xmlns="http://www.w3.org/2000/svg" xmlns:xlink="http://www.w3.org/1999/xlink" x="0px" y="0px" viewBox="0 0 24 24"
	 style="enable-background:new 0 0 24 24;" xml:space="preserve">
<style type="text/css">
	.st0{fill:none;}
	.st1{fill-rule:evenodd;clip-rule:evenodd;fill:#D1D5DB;}
</style>
<path id="Rectangle_4426" class="st0" d="M0,0h24v24H0V0z"/>
<g id="Top-BarTheme">
	<g id="Group-3" transform="translate(4.000000, 2.000000)">
		<g id="Clip-2">
		</g>
		<path id="Fill-1" class="st1" d="M10,1.6c0.3,0,0.5,0,0.8,0C7.9,3.2,6,6.3,6,9.6s1.8,6.4,4.8,8c-0.3,0-0.5,0-0.8,0
			c-4.4,0-8-3.6-8-8S5.6,1.6,10,1.6 M11.2,19.5c0.1,0,0.2,0,0.2,0c0.3,0,0.6-0.1,0.9-0.2c0.1,0,0.2,0,0.2-0.1
			c0.3-0.1,0.6-0.2,0.9-0.3c0.1,0,0.1,0,0.2-0.1c0.4-0.1,0.7-0.3,1-0.5l0.2-0.1c0.8-0.4,1.4-0.9,2.1-1.5l-2.6-0.1
			c-3.5-0.4-6.3-3.4-6.3-7s2.7-6.6,6.3-7l2.6-0.3c-0.6-0.6-1.3-1.1-2.1-1.5l-0.2-0.1c-0.3-0.2-0.7-0.3-1-0.5c-0.1,0-0.1,0-0.2-0.1
			c-0.3-0.1-0.6-0.2-0.9-0.3c-0.1,0-0.2,0-0.2-0.1c-0.3-0.1-0.6-0.1-0.9-0.2c-0.1,0-0.2,0-0.2,0C7.4-0.8,3.6,1,1.5,4.3
			s-2.1,7.4,0,10.7C3.6,18.2,7.4,20,11.2,19.5"/>
	</g>
</g>
</svg>
