<?xml version="1.0" encoding="utf-8"?>
<!-- Generator: Adobe Illustrator 27.2.0, SVG Export Plug-In . SVG Version: 6.00 Build 0)  -->
<svg version="1.1" id="Layer_1" xmlns="http://www.w3.org/2000/svg" xmlns:xlink="http://www.w3.org/1999/xlink" x="0px" y="0px"
	 viewBox="0 0 24 24" style="enable-background:new 0 0 24 24;" xml:space="preserve">
<style type="text/css">
	.st0{fill:#F1573A;stroke:#F1573A;stroke-miterlimit:10;}
</style>
<g>
	<path class="st0" d="M19.1,3.5c-0.2,0-0.4,0.2-0.4,0.4v14.8c0,0.2,0.2,0.4,0.4,0.4c0.2,0,0.4-0.2,0.4-0.4V3.9
		C19.4,3.7,19.3,3.5,19.1,3.5z"/>
	<path class="st0" d="M13.8,7c-0.2,0-0.4,0.2-0.4,0.4v11.3c0,0.2,0.2,0.4,0.4,0.4c0.2,0,0.4-0.2,0.4-0.4V7.4C14.2,7.2,14,7,13.8,7z"
		/>
	<path class="st0" d="M8.5,10.9c-0.2,0-0.4,0.2-0.4,0.4v7.4c0,0.2,0.2,0.4,0.4,0.4c0.2,0,0.4-0.2,0.4-0.4v-7.4
		C8.9,11.1,8.8,10.9,8.5,10.9z"/>
	<path class="st0" d="M3.3,14.6c-0.2,0-0.4,0.2-0.4,0.4v3.7c0,0.2,0.2,0.4,0.4,0.4s0.4-0.2,0.4-0.4V15C3.7,14.8,3.5,14.6,3.3,14.6z"
		/>
</g>
</svg>
