<?xml version="1.0" encoding="UTF-8"?>
<svg id="ic_piv" data-name="ic piv" xmlns="http://www.w3.org/2000/svg" viewBox="0 0 24 24">
  <defs>
    <style>
      .cls-1 {
        fill: none;
      }

      .cls-2 {
        fill: #f53;
      }

      .cls-3 {
        fill: #fff;
      }
    </style>
  </defs>
  <circle class="cls-2" cx="12" cy="12" r="10.34"/>
  <g>
    <path class="cls-3" d="m17.24,13.74h-4.11c-.07,0-.11.07-.07.13.66,1.02,1.84,1.7,3.2,1.7h3.13s.08-.04.08-.08v-1.66s-.04-.08-.08-.08h-2.15Z"/>
    <path class="cls-3" d="m13.06,10.12c-.04.06,0,.15.08.15h3.14s.95,0,.95,0h2.13c.05,0,.1-.04.1-.1v-1.65s-.04-.09-.09-.09h-3.13c-1.35,0-2.52.67-3.18,1.68Z"/>
    <g>
      <path class="cls-3" d="m6.76,10.26h4.11c.07,0,.11-.07.07-.13-.66-1.02-1.84-1.7-3.2-1.7h-3.13s-.08.04-.08.08v1.66s.04.08.08.08h2.15Z"/>
      <path class="cls-3" d="m10.94,13.88c.04-.06,0-.15-.08-.15h-3.14s-.95,0-.95,0h-2.13c-.05,0-.1.04-.1.1v1.65s.04.09.09.09h3.13c1.35,0,2.52-.67,3.18-1.68Z"/>
    </g>
    <rect class="cls-3" x="8.29" y="11.13" width="7.61" height="1.75" rx=".87" ry=".87"/>
  </g>
  <path id="Rectangle_4543" data-name="Rectangle 4543" class="cls-1" d="m0,0h24v24H0V0Z"/>
</svg>