<?xml version="1.0" encoding="utf-8"?>
<!-- Generator: Adobe Illustrator 28.0.0, SVG Export Plug-In . SVG Version: 6.00 Build 0)  -->
<svg version="1.1" id="Layer_1" xmlns="http://www.w3.org/2000/svg" xmlns:xlink="http://www.w3.org/1999/xlink" x="0px" y="0px"
	 viewBox="0 0 50 50" style="enable-background:new 0 0 50 50;" xml:space="preserve">
<style type="text/css">
	.st0{fill:#FF5533;}
</style>
<g>
	<path class="st0" d="M17.3,26l9.4,4.2c1.1,0.5,1.7,0,1.9-0.8c0.2-0.8-0.4-1.9-1.9-2.9l-3.1-2.3c-0.2,0-0.2,0-0.2,0L23.2,24
		c-0.4-0.4-0.4-0.6-0.4-1s0.2-0.6,0.6-0.6c0.2,0,0.2,0,0.2,0c0.2,0,0.2,0,0.4,0h2.8c1.2,0,2.1,0.5,2.7,1.3c0.2,0.2,0.2,0.2,0.2,0.2
		c0,0.2,0,0.2,0,0.2h5.4c-0.2-0.2-0.2-0.4-0.4-0.6c-0.4-0.5-0.6-1.1-1-1.7c0-0.2-0.2-0.4-0.2-0.6c-1.6-2.7-3.5-4.2-5.6-4.6
		c-0.2,0-0.2,0-0.2,0l-7.5-1c-1.4-0.2-2.5-0.9-3.1-1.9l-2.9-4.4L7.5,16l3.7,5.9c1.1,1.6,2.6,3.1,4.9,3.5
		C16.5,25.6,16.9,25.8,17.3,26z"/>
	<polygon class="st0" points="13.5,39.2 13.5,39.1 13.5,39.1 	"/>
	<path class="st0" d="M37.2,36V25.4H26.4l0.6,0.4c0.7,0.5,1.1,0.9,1.5,1.3H36v10.4c-5.8,0-11.9,0-17.9,0v-9.2l-1.5-0.6v1.5
		c0,0.6,0,1.5,0,2.3c0,1.5,0,3.1,0,4.6h-2.3l-0.8,3h26.8L39.5,36H37.2z"/>
</g>
</svg>
