<?xml version="1.0" encoding="utf-8"?>
<!-- Generator: Adobe Illustrator 27.2.0, SVG Export Plug-In . SVG Version: 6.00 Build 0)  -->
<svg version="1.1" id="Layer_1" xmlns="http://www.w3.org/2000/svg" xmlns:xlink="http://www.w3.org/1999/xlink" x="0px" y="0px"
	 viewBox="0 0 50 50" style="enable-background:new 0 0 50 50;" xml:space="preserve">
<style type="text/css">
	.st0{fill:#D1D5DB;}
</style>
<path class="st0" d="M25,0C11.2,0,0,11.2,0,25s11.2,25,25,25s25-11.2,25-25S38.8,0,25,0z M11.2,21.9L7.5,16l6.7-6.7l2.9,4.4
	c0.6,1,1.7,1.7,3.1,1.9l7.5,1c0,0,0,0,0.2,0c2.1,0.4,4,1.9,5.6,4.6c0,0.2,0.2,0.4,0.2,0.6c0.4,0.6,0.6,1.2,1,1.7
	c0.2,0.2,0.2,0.4,0.4,0.6h-5.4c0,0,0,0,0-0.2c0,0,0,0-0.2-0.2c-0.6-0.8-1.5-1.3-2.7-1.3H24l0,0c-0.2,0-0.2,0-0.4,0c0,0,0,0-0.2,0
	l0,0c-0.4,0-0.6,0.2-0.6,0.6l0,0c0,0.4,0,0.6,0.4,1l0.2,0.2c0,0,0,0,0.2,0l3.1,2.3l0,0c1.5,1,2.1,2.1,1.9,2.9
	c-0.2,0.8-0.8,1.3-1.9,0.8l-9.4-4.2c-0.4-0.2-0.8-0.4-1.2-0.6C13.8,25,12.3,23.5,11.2,21.9z M13.5,39.2l0.8-3.1h2.3
	c0-1.5,0-3.1,0-4.6c0-0.8,0-1.7,0-2.3v-1.5l1.5,0.6v9.2c6,0,12.1,0,17.9,0V27.1h-7.5c-0.4-0.4-0.8-0.8-1.5-1.3l-0.6-0.4h10.8V36h2.3
	l0.8,3.1H13.5z"/>
</svg>
