<?xml version="1.0" encoding="utf-8"?>
<!-- Generator: Adobe Illustrator 27.4.0, SVG Export Plug-In . SVG Version: 6.00 Build 0)  -->
<svg version="1.1" id="Layer_1" xmlns="http://www.w3.org/2000/svg" xmlns:xlink="http://www.w3.org/1999/xlink" x="0px" y="0px"
	 viewBox="0 0 24 40" style="enable-background:new 0 0 24 40;" xml:space="preserve">
<style type="text/css">
	.st0{fill-rule:evenodd;clip-rule:evenodd;fill:#FF5533;}
</style>
<g>
	<g>
		<path class="st0" d="M20.83,30.62h1.63L23.03,33H4.04l0.57-2.38h1.63c0-1.16,0-2.32,0-3.49c0-0.61,0-1.21,0-1.82v-1.08l1.07,0.52
			v7.05c4.15,0,8.29,0,12.44,0v-8.1h-5.11c-0.26-0.3-0.58-0.6-0.97-0.9l-0.37-0.29h7.52V30.62z"/>
	</g>
	<g>
		<path class="st0" d="M18.08,19.97c0.22,0.42,0.44,0.85,0.67,1.27c0.07,0.13,0.14,0.26,0.21,0.4h-3.59
			c-0.02-0.03-0.04-0.06-0.07-0.09c-0.02-0.03-0.05-0.07-0.07-0.1c-0.42-0.55-1.01-0.84-1.78-0.86h-1.89c-0.02,0-0.03,0-0.05,0
			c-0.1,0-0.2,0.01-0.28,0.02c-0.03,0-0.06,0.01-0.09,0.01l-0.06,0.01c-0.27,0.06-0.42,0.2-0.47,0.42l-0.01,0.03
			c-0.04,0.26,0.03,0.5,0.22,0.74c0.05,0.07,0.12,0.14,0.19,0.2c0.02,0.02,0.05,0.04,0.08,0.07l2.04,1.59
			c0.02,0.02,0.04,0.03,0.06,0.05c0.96,0.77,1.35,1.47,1.16,2.09c-0.19,0.64-0.6,0.84-1.23,0.62L7,23.46
			c-0.26-0.13-0.51-0.28-0.75-0.43c-1.12-0.73-2.05-1.72-2.8-2.97l-2.47-4.15l4.37-4.74l1.85,3.11c0.44,0.7,1.13,1.12,2.05,1.26
			l4.97,0.75c0.02,0,0.05,0.01,0.07,0.01c1.4,0.24,2.6,1.34,3.6,3.3C17.95,19.71,18.01,19.84,18.08,19.97z"/>
	</g>
</g>
<g>
	<polygon class="st0" points="15.46,26.22 16.43,27.2 12.85,30.77 10.65,28.56 11.62,27.59 12.85,28.82 	"/>
</g>
</svg>
