<?xml version="1.0" encoding="utf-8"?>
<!-- Generator: Adobe Illustrator 27.2.0, SVG Export Plug-In . SVG Version: 6.00 Build 0)  -->
<svg version="1.1" id="Layer_1" xmlns="http://www.w3.org/2000/svg" xmlns:xlink="http://www.w3.org/1999/xlink" x="0px" y="0px"
	 viewBox="0 0 50 50" style="enable-background:new 0 0 50 50;" xml:space="preserve">
<style type="text/css">
	.st0{fill:#D1D5DB;}
</style>
<path class="st0" d="M25,0C11.2,0,0,11.2,0,25s11.2,25,25,25s25-11.2,25-25S38.8,0,25,0z M17.5,13.8l5.8-5.8c0.4-0.4,1-0.6,1.7-0.6
	l0,0l0,0l0,0c0.6,0,1.2,0.2,1.7,0.6l5.8,5.8c0.2,0.2,0.2,0.8,0,1C32.3,15,32.1,15,32.1,15s-0.4,0-0.4-0.2L25.8,9v21.5
	c0,0.4-0.4,0.8-0.8,0.8s-0.8-0.4-0.8-0.8V9l-5.6,5.8c-0.2,0.2-0.8,0.2-1,0C17.1,14.4,17.1,14,17.5,13.8z M41.2,34.6
	c0,2.7-2.1,5-4.4,5H13.3c-2.5,0-4.4-2.3-4.4-5v-4.2c0-0.4,0.4-0.8,0.8-0.8c0.4,0,0.8,0.4,0.8,0.8v4.2c0,1.9,1.2,3.5,2.9,3.5h23.5
	c1.7,0,2.9-1.7,2.9-3.5v-4.2c0-0.4,0.4-0.8,0.8-0.8s0.8,0.4,0.8,0.8v4.2H41.2z"/>
</svg>
