<?xml version="1.0" encoding="utf-8"?>
<!-- Generator: Adobe Illustrator 27.2.0, SVG Export Plug-In . SVG Version: 6.00 Build 0)  -->
<svg version="1.1" id="Layer_1" xmlns="http://www.w3.org/2000/svg" xmlns:xlink="http://www.w3.org/1999/xlink" x="0px" y="0px"
	 viewBox="0 0 50 50" style="enable-background:new 0 0 50 50;" xml:space="preserve">
<style type="text/css">
	.st0{fill:#FFFFFF;}
</style>
<g>
	<path class="st0" d="M34.8,21.9c-0.2-0.6-0.4-1-0.6-1.7l-0.4-0.8l2.7-3.3L34,13.5l-3.3,2.7l-0.8-0.4c-0.4-0.2-1-0.4-1.7-0.6l-1-0.4
		l-0.4-4.2h-3.5l-0.4,4.2l-1,0.4c-0.6,0.2-1,0.4-1.7,0.6l-0.8,0.4L16,13.5L13.5,16l2.7,3.3l-0.4,0.8c-0.2,0.4-0.4,1-0.6,1.7l-0.4,1
		l-4.2,0.4v3.5l4.2,0.4l0.4,1c0.2,0.6,0.4,1,0.6,1.7l0.4,0.8l-2.7,3.3l2.5,2.5l3.3-2.7l0.8,0.4c0.4,0.2,1,0.4,1.7,0.6l1,0.4l0.4,4.2
		h3.5l0.4-4.2l1-0.4c0.6-0.2,1-0.4,1.7-0.6l0.8-0.4l3.3,2.7l2.5-2.5L34,30.8l0.4-0.8c0.2-0.4,0.4-1,0.6-1.7l0.4-1l4.2-0.4v-3.5
		l-4.2-0.4L34.8,21.9z M29.6,29.6c-1.2,1.2-2.7,1.9-4.6,1.9c-3.5,0-6.5-2.9-6.5-6.5s2.9-6.5,6.5-6.5s6.5,2.9,6.5,6.5
		C31.5,26.7,30.6,28.3,29.6,29.6z"/>
	<path class="st0" d="M25,0C11.2,0,0,11.2,0,25s11.2,25,25,25s25-11.2,25-25S38.8,0,25,0z M42.5,29.6l-5,0.6v0.2l3.1,4l-6.5,6.5
		l-4-3.3H30l-0.4,5h-9.2l-0.6-5h-0.2l-4,3.1l-6.5-6.5l3.3-4V30l-5-0.4v-9.2l5-0.6v-0.2l-3.1-4l6.5-6.5l4,3.3H20l0.4-5h9.2l0.4,5h0.2
		l4-3.1l6.5,6.5l-3.1,4V20l5,0.4V29.6z"/>
	<circle class="st0" cx="25" cy="25" r="3.1"/>
</g>
</svg>
