<?xml version="1.0" encoding="utf-8"?>
<!-- Generator: Adobe Illustrator 27.4.0, SVG Export Plug-In . SVG Version: 6.00 Build 0)  -->
<svg version="1.1" id="Layer_1" xmlns="http://www.w3.org/2000/svg" xmlns:xlink="http://www.w3.org/1999/xlink" x="0px" y="0px"
	 viewBox="0 0 24 40" style="enable-background:new 0 0 24 40;" xml:space="preserve">
<style type="text/css">
	.st0{fill:#FF5533;stroke:#FF5533;stroke-width:0.75;stroke-miterlimit:10;}
	.st1{fill:#FF5533;}
</style>
<g>
	<path class="st0" d="M20.3,30.5c1.2,0,2.2-1,2.2-2.2v-13c0-1.2-1-2.2-2.2-2.2h-3C16,11.6,14,10.7,12,10.7s-4,0.9-5.3,2.4h-3
		c-1.2,0-2.2,1-2.2,2.2v13c0,1.2,1,2.2,2.2,2.2h5.2l-0.3,1.1H8.4c-0.9,0-1.6,0.7-1.6,1.6v0.6c0,0.2,0.2,0.4,0.4,0.4h9.6
		c0.2,0,0.4-0.2,0.4-0.4v-0.6c0-0.9-0.7-1.6-1.6-1.6h-0.1l-0.3-1.1L20.3,30.5L20.3,30.5z M12,11.5c1.9,0,3.6,0.8,4.8,2.3
		c0.9,1.1,1.5,2.6,1.5,4c0,3.5-2.8,6.3-6.3,6.3s-6.3-2.8-6.3-6.3c0-0.4,0-0.7,0.1-1.1c0.2-1.1,0.7-2.1,1.4-3
		C8.4,12.3,10.1,11.5,12,11.5z M3.7,13.9h2.4C6,14,6,14.1,5.9,14.2c0,0.1-0.1,0.1-0.1,0.1c-0.1,0.2-0.2,0.3-0.3,0.5c0,0,0,0.1,0,0.1
		c-0.1,0.1-0.1,0.3-0.2,0.4c0,0.1,0,0.1-0.1,0.2c0,0.1-0.1,0.2-0.1,0.4c0,0.1,0,0.1-0.1,0.2c0,0.1-0.1,0.2-0.1,0.4
		c0,0.1,0,0.1,0,0.2c0,0.1,0,0.3-0.1,0.4c0,0.1,0,0.1,0,0.2c0,0.2,0,0.4,0,0.6c0,3.9,3.2,7.1,7.1,7.1s7.1-3.2,7.1-7.1
		c0-0.2,0-0.4,0-0.6c0-0.1,0-0.1,0-0.2c0-0.1,0-0.3-0.1-0.4c0-0.1,0-0.1,0-0.2c0-0.1,0-0.2-0.1-0.4c0-0.1,0-0.1-0.1-0.2
		c0-0.1-0.1-0.2-0.1-0.4c0-0.1,0-0.1-0.1-0.2c-0.1-0.1-0.1-0.3-0.2-0.4c0,0,0-0.1,0-0.1c-0.1-0.2-0.2-0.3-0.3-0.5
		c0-0.1-0.1-0.1-0.1-0.2C18,14.1,18,14,17.9,13.9h2.4c0.8,0,1.4,0.6,1.4,1.4V27H2.3V15.3C2.3,14.5,2.9,13.9,3.7,13.9z M2.3,28.3
		v-0.6h19.5v0.6c0,0.8-0.6,1.4-1.4,1.4h-5.8c0,0,0,0,0,0H9.4c0,0,0,0,0,0H3.7C2.9,29.7,2.3,29.1,2.3,28.3L2.3,28.3z M16.4,33.2v0.2
		H7.6v-0.2c0-0.5,0.4-0.8,0.8-0.8h7.1C16,32.4,16.4,32.8,16.4,33.2L16.4,33.2z M14.6,31.6H9.4l0.3-1.1h4.6L14.6,31.6L14.6,31.6z"/>
	<path class="st1" d="M11.3,29.1h1.3c0.2,0,0.4-0.2,0.4-0.4c0-0.2-0.2-0.4-0.4-0.4h-1.3c-0.2,0-0.4,0.2-0.4,0.4
		C11,29,11.1,29.1,11.3,29.1z"/>
	<path class="st0" d="M11.1,19.9c0.1,0.1,0.2,0.1,0.3,0.1s0.2,0,0.3-0.1l3.6-3.6c0.2-0.2,0.2-0.4,0-0.6c-0.2-0.2-0.4-0.2-0.6,0
		l-3.3,3.3l-2-2c-0.2-0.2-0.4-0.2-0.6,0c-0.2,0.2-0.2,0.4,0,0.6C8.8,17.6,11.1,19.9,11.1,19.9z"/>
</g>
</svg>
