<?xml version="1.0" encoding="utf-8"?>
<!-- Generator: Adobe Illustrator 27.2.0, SVG Export Plug-In . SVG Version: 6.00 Build 0)  -->
<svg version="1.1" id="Layer_1" xmlns="http://www.w3.org/2000/svg" xmlns:xlink="http://www.w3.org/1999/xlink" x="0px" y="0px"
	 viewBox="0 0 50 50" style="enable-background:new 0 0 50 50;" xml:space="preserve">
<style type="text/css">
	.st0{fill:#D1D5DB;}
</style>
<g>
	<path class="st0" d="M25,0C11.3,0,0,11.1,0,25s11.1,25,25,25s25-11.1,25-25S38.7,0,25,0z M42.9,28.4l-1.6,0.3
		c-0.3,0-0.3,0.3-0.5,0.3l-1.8,4.5c0,0.3,0,0.3,0,0.5l0.8,1.3c0.3,0.5,0.3,1.3-0.3,1.6L36.3,40c-0.5,0.5-1.1,0.5-1.6,0.3l-1.3-0.8
		c-0.3,0-0.3,0-0.5,0l-4.5,1.8c-0.3,0-0.3,0.3-0.3,0.5l-0.3,1.6c0,0.5-0.5,1.1-1.3,1.1h-4.5c-0.5,0-1.1-0.5-1.3-1.1l-0.3-1.6
		c0-0.3-0.3-0.3-0.3-0.5l-4.5-1.8h-0.3h-0.3l-1.3,0.8c-0.5,0.3-1.3,0.3-1.6-0.3l-3.2-3.2c-0.5-0.5-0.5-1.1-0.3-1.6l0.8-1.3
		c0-0.3,0-0.3,0-0.5l-1.8-4.5c0-0.3-0.3-0.3-0.5-0.3l-1.6-0.3c-0.5,0-1.1-0.5-1.1-1.3v-4.5c0-0.5,0.5-1.1,1.1-1.3l1.6-0.3
		c0.3,0,0.3-0.3,0.5-0.3l1.8-4.5c0-0.3,0-0.3,0-0.5l-0.8-1.3c-0.3-0.5-0.3-1.3,0.3-1.6l3.2-3.2c0.5-0.5,1.1-0.5,1.6-0.3l1.3,0.8
		c0.3,0,0.3,0,0.5,0l4.5-1.8c0.3,0,0.3-0.3,0.3-0.5l0.3-1.6c0-0.5,0.5-1.1,1.3-1.1h4.5c0.5,0,1.1,0.5,1.3,1.1l0.3,1.6
		c0,0.3,0.3,0.3,0.3,0.5l4.5,1.8c0.3,0,0.3,0,0.5,0l1.3-0.8c0.5-0.3,1.3-0.3,1.6,0.3l3.2,3.2c0.5,0.5,0.5,1.1,0.3,1.6l-0.8,1.3
		c0,0.3,0,0.3,0,0.5l1.8,4.5c0,0.3,0.3,0.3,0.5,0.3l1.6,0.3c0.5,0,1.1,0.5,1.1,1.3v4.5C43.9,27.9,43.4,28.4,42.9,28.4z"/>
	<path class="st0" d="M16.9,17.5c1.3-1.1,2.7-1.9,4.3-2.4c1.5-0.5,2.8-0.5,3.3-0.5c2.4,0,4.3,0.9,5.3,1.5c-0.2,0.3-0.3,0.7-0.3,1.2
		c0,1.2,1.1,2.6,2.6,2.6c1.4,0,2.6-1.2,2.6-2.6c0-1.3-1-2.4-2.2-2.6c-1-0.2-1.9,0.4-2,0.5c-1.8-1.1-3.9-1.8-6.1-1.8
		c-3.2,0-6.1,1.3-8.2,3.4c-0.2,0.2-0.2,0.4-0.2,0.4c0,0.1,0.1,0.3,0.2,0.4C16.5,17.6,16.7,17.6,16.9,17.5z M32.1,15.7
		c0.9,0,1.6,0.7,1.6,1.6c0,0.9-0.7,1.6-1.6,1.6c-0.9,0-1.6-0.7-1.6-1.6C30.6,16.4,31.3,15.7,32.1,15.7z"/>
	<path class="st0" d="M29.8,28.6c0.3,0,0.3-0.3,0.3-0.5v-5.8l0,0V22c0,0,0,0-0.3-0.3l0,0l-5-2.9c-0.3,0-0.3,0-0.5,0L19,21.7l0,0
		c0,0,0,0-0.3,0.3l0,0v0.3l0,0V28c0,0.3,0,0.3,0.3,0.5l5,2.9l0,0h0.3l0,0l0,0l0,0h0.3l0,0L29.8,28.6z M29,27.8L25,30.1v-4.7L29,23
		V27.8z M24,30.1l-4.2-2.4V23l3.9,2.4v4.7H24z M24.5,24.6l-3.9-2.4l3.9-2.4l3.9,2.4L24.5,24.6z"/>
	<path class="st0" d="M34.6,22.2c0.3,1.7,0.3,3.3,0,5c-0.4,1.6-0.9,2.7-1.2,3.1c-1.2,2.1-2.9,3.3-3.9,3.9c-0.2-0.3-0.4-0.6-0.9-0.9
		c-1-0.6-2.8-0.4-3.6,1c-0.7,1.3-0.2,2.9,1,3.6c1.1,0.6,2.6,0.3,3.3-0.6c0.7-0.8,0.6-1.8,0.6-2c1.8-1.1,3.5-2.5,4.6-4.4
		c1.5-2.8,1.8-5.9,1-8.8c-0.1-0.3-0.2-0.4-0.2-0.4c-0.1-0.1-0.3-0.1-0.4,0C34.7,21.9,34.6,22,34.6,22.2z M28.7,36.4
		c-0.4,0.8-1.4,1-2.1,0.6s-1-1.4-0.6-2.1c0.4-0.8,1.4-1,2.1-0.6C28.9,34.7,29.1,35.7,28.7,36.4z"/>
	<path class="st0" d="M21.7,35.2c-1.6-0.5-3-1.4-4.3-2.6c-1.2-1.1-1.8-2.2-2.1-2.6c-1.2-2.1-1.4-4.2-1.4-5.4c0.3,0,0.8,0,1.2-0.3
		c1-0.6,1.8-2.2,1-3.6c-0.7-1.3-2.4-1.7-3.6-1c-1.1,0.6-1.6,2.1-1.2,3.2c0.4,1,1.2,1.4,1.4,1.5c0,2.1,0.4,4.3,1.4,6.2
		c1.6,2.7,4.2,4.6,7,5.4c0.3,0.1,0.4,0,0.4,0c0.1-0.1,0.2-0.2,0.2-0.4C22,35.5,21.9,35.3,21.7,35.2z M12.5,22.9
		c-0.4-0.8-0.2-1.7,0.6-2.2c0.8-0.4,1.7-0.2,2.2,0.6c0.4,0.8,0.2,1.7-0.6,2.2C13.9,23.9,12.9,23.6,12.5,22.9z"/>
</g>
</svg>
