<?xml version="1.0" encoding="utf-8"?>
<!-- Generator: Adobe Illustrator 27.2.0, SVG Export Plug-In . SVG Version: 6.00 Build 0)  -->
<svg version="1.1" id="Layer_1" xmlns="http://www.w3.org/2000/svg" xmlns:xlink="http://www.w3.org/1999/xlink" x="0px" y="0px"
	 viewBox="0 0 50 50" style="enable-background:new 0 0 50 50;" xml:space="preserve">
<style type="text/css">
	.st0{fill:#FFFFFF;}
</style>
<path class="st0" d="M25,0C11.2,0,0,11.2,0,25s11.2,25,25,25s25-11.2,25-25S38.8,0,25,0z M27.3,9.2L32.9,21H17.1l5.6-11.9
	C22.7,9.2,27.3,9.2,27.3,9.2z M13.5,9.2h7.1l-5.4,11.7H7.7L13.5,9.2L13.5,9.2z M8.1,22.7H15l6.9,17.7L8.1,22.7L8.1,22.7z M25,43.5
	l-7.9-20.6h16L25,43.5L25,43.5z M28.1,40.4L35,22.7h6.9L28.1,40.4L28.1,40.4z M35,20.8L29.4,9h7.1l5.8,11.9H35z"/>
</svg>
