<?xml version="1.0" encoding="utf-8"?>
<!-- Generator: Adobe Illustrator 27.2.0, SVG Export Plug-In . SVG Version: 6.00 Build 0)  -->
<svg version="1.1" id="Layer_1" xmlns="http://www.w3.org/2000/svg" xmlns:xlink="http://www.w3.org/1999/xlink" x="0px" y="0px"
	 viewBox="0 0 50 50" style="enable-background:new 0 0 50 50;" xml:space="preserve">
<style type="text/css">
	.st0{fill:#FFFFFF;}
</style>
<g>
	<path class="st0" d="M12.7,35.4c0.2,2.1,1.9,3.5,3.7,3.5s3.8-1.5,3.8-3.5v-2.7h-7.5V35.4z"/>
	<path class="st0" d="M33.3,39c2.1,0,3.8-1.5,3.8-3.5v-2.7h-7.7v2.7C29.8,37.3,31.5,39,33.3,39z"/>
	<polygon class="st0" points="25,12.9 17.1,11.7 14.4,23.5 35.6,23.5 32.9,11.5 	"/>
	<path class="st0" d="M25,0C11.2,0,0,11.2,0,25s11.2,25,25,25s25-11.2,25-25S38.8,0,25,0z M40.2,35.4c-0.2,3.7-3.1,6.7-6.9,6.7
		c-3.5-0.2-6.2-2.7-6.9-6.2h-3.1c-0.4,3.5-3.3,6-6.9,6.2c-3.8,0-6.7-2.9-6.9-6.7v-5.6h13.8v3.1h3.1v-3.1h13.8V35.4z M41.9,26.7H8.1
		v-3.1h3.1l3.3-15.4L25,9.8l10.4-1.7L39,23.5h3.1v3.1H41.9z"/>
</g>
</svg>
