<?xml version="1.0" encoding="utf-8"?>
<!-- Generator: Adobe Illustrator 27.2.0, SVG Export Plug-In . SVG Version: 6.00 Build 0)  -->
<svg version="1.1" id="Layer_1" xmlns="http://www.w3.org/2000/svg" xmlns:xlink="http://www.w3.org/1999/xlink" x="0px" y="0px"
	 viewBox="0 0 50 50" style="enable-background:new 0 0 50 50;" xml:space="preserve">
<style type="text/css">
	.st0{fill:#D1D5DB;}
</style>
<path class="st0" d="M24.9-0.6c-13.9,0-25,11.1-25,25s11.1,25,25,25s25-11.1,25-24.8S38.8-0.6,24.9-0.6z M39.8,10.8
	c-0.6,0.6-1.5,0.7-2.2,0.2l-3.7,2.5c0.3,0.7,0.2,1.5-0.2,2c-0.6,0.7-1.8,0.7-2.5,0c-0.5-0.5-0.6-1.3-0.2-2c-1.4-0.8-2.7-1.6-4.1-2.4
	c-0.3,0.6-0.9,1-1.6,1c-0.8-0.1-1.2-0.7-1.2-0.7c-3.7,2-7.4,4-11.1,5.9c0,0,0.5,0.9,0,1.7c-0.5,0.8-1.3,0.8-1.4,0.8
	c-0.8,0-1.7-0.5-1.9-1.4c-0.2-0.8,0.1-1.7,0.9-2c0.6-0.3,1.4-0.2,2,0.2l11.1-5.9c0-0.1,0-1,0.9-1.5c0.7-0.4,1.4-0.1,1.5-0.1
	c0.9,0.4,1.1,1.3,1.1,1.4c1.4,0.9,2.9,1.7,4.3,2.6c0.1-0.1,0.5-0.4,1.1-0.4c0.4,0,0.6,0.1,0.8,0.2c1.2-0.8,2.5-1.7,3.7-2.5
	c-0.3-0.8-0.1-1.6,0.5-2.1c0.7-0.6,1.8-0.6,2.4,0.1C40.4,9,40.4,10.1,39.8,10.8z M40.2,20.2v9.9c0,0.2-0.2,0.5-0.5,0.5h-4.2
	c-0.2,0-0.5-0.2-0.5-0.5v-9.9c0-0.2,0.2-0.5,0.5-0.5H40C40.2,19.9,40.2,19.9,40.2,20.2z M33.8,25.6v4.5c0,0.2-0.2,0.5-0.5,0.5h-4.2
	c-0.2,0-0.5-0.2-0.5-0.5v-4.5c0-0.2,0.2-0.5,0.5-0.5h4.2C33.8,25.1,33.8,25.4,33.8,25.6z M26.9,15v15.1c0,0.2-0.2,0.5-0.5,0.5h-4.2
	c-0.2,0-0.5-0.2-0.5-0.5V15c0-0.2,0.2-0.5,0.5-0.5h4.2C26.6,14.7,26.9,15,26.9,15L26.9,15z M20.7,20.2v9.9c0,0.2-0.2,0.5-0.5,0.5H16
	c-0.2,0-0.5-0.2-0.5-0.5v-9.9c0-0.2,0.2-0.5,0.5-0.5h4.2C20.4,19.9,20.7,19.9,20.7,20.2z M9.3,25.6c0-0.2,0.2-0.5,0.5-0.5H14
	c0.2,0,0.5,0.2,0.5,0.5v4.5c0,0.2-0.2,0.5-0.5,0.5H9.6c-0.2,0-0.5-0.2-0.5-0.5C9.3,30.1,9.3,25.6,9.3,25.6z M9.6,31.8H40
	c0.2,0,0.5,0.2,0.5,0.5c0,0.2-0.2,0.5-0.5,0.5H9.6c-0.2,0-0.5-0.2-0.5-0.5C9.1,32.1,9.3,31.8,9.6,31.8z M9.3,39v-5
	c0-0.2,0.2-0.5,0.5-0.5c0.2,0,0.5,0.2,0.5,0.5v5c0,0.2-0.2,0.5-0.5,0.5C9.3,39.5,9.3,39.3,9.3,39z M12.5,39v-5
	c0-0.2,0.2-0.5,0.5-0.5c0.2,0,0.5,0.2,0.5,0.5v5c0,0.2-0.2,0.5-0.5,0.5C12.8,39.5,12.5,39.3,12.5,39z M16,39v-5
	c0-0.2,0.2-0.5,0.5-0.5c0.2,0,0.5,0.2,0.5,0.5v5c0,0.2-0.2,0.5-0.5,0.5C16.2,39.5,16,39.3,16,39z M19.5,39v-5c0-0.2,0.2-0.5,0.5-0.5
	c0.2,0,0.5,0.2,0.5,0.5v5c0,0.2-0.2,0.5-0.5,0.5C19.7,39.5,19.5,39.3,19.5,39z M22.9,39v-5c0-0.2,0.2-0.5,0.5-0.5
	c0.2,0,0.5,0.2,0.5,0.5v5c0,0.2-0.2,0.5-0.5,0.5C23.2,39.5,22.9,39.3,22.9,39z M26.1,39v-5c0-0.2,0.2-0.5,0.5-0.5s0.5,0.2,0.5,0.5v5
	c0,0.2-0.2,0.5-0.5,0.5C26.4,39.5,26.1,39.3,26.1,39z M29.6,39v-5c0-0.2,0.2-0.5,0.5-0.5c0.2,0,0.5,0.2,0.5,0.5v5
	c0,0.2-0.2,0.5-0.5,0.5C29.9,39.5,29.6,39.3,29.6,39z M33.1,39v-5c0-0.2,0.2-0.5,0.5-0.5s0.5,0.2,0.5,0.5v5c0,0.2-0.2,0.5-0.5,0.5
	S33.1,39.3,33.1,39z M36.5,39v-5c0-0.2,0.2-0.5,0.5-0.5c0.2,0,0.5,0.2,0.5,0.5v5c0,0.2-0.2,0.5-0.5,0.5C36.8,39.5,36.5,39.3,36.5,39
	z M40.7,39c0,0.2-0.2,0.5-0.5,0.5C40,39.5,40,39.3,40,39v-5c0-0.2,0.2-0.5,0.5-0.5c0.2,0,0.5,0.2,0.5,0.5v5H40.7z"/>
</svg>
