<?xml version="1.0" encoding="utf-8"?>
<!-- Generator: Adobe Illustrator 27.2.0, SVG Export Plug-In . SVG Version: 6.00 Build 0)  -->
<svg version="1.1" id="Layer_1" xmlns="http://www.w3.org/2000/svg" xmlns:xlink="http://www.w3.org/1999/xlink" x="0px" y="0px"
	 viewBox="0 0 50 50" style="enable-background:new 0 0 50 50;" xml:space="preserve">
<style type="text/css">
	.st0{fill:#D1D5DB;}
</style>
<g>
	<path class="st0" d="M25,21.6c-1.8,0-3.4,1.6-3.4,3.4c0,1.8,1.6,3.4,3.4,3.4c2,0,3.6-1.6,3.4-3.4C28.4,23.2,26.8,21.6,25,21.6z"/>
	<path class="st0" d="M25,0C11.1,0,0,11.1,0,25s11.1,25,25,25s25-11.1,25-25S38.9,0,25,0z M43.2,34.3c0.2,0.2,0.5,0.7,0.2,1.1
		c-0.2,0.2-0.5,0.5-0.7,0.5s-0.2,0-0.5,0l-5-3l1.6,6.1c0,0.5-0.2,0.7-0.7,0.9H38c-0.2,0-0.7-0.2-0.7-0.7l-2-7.7l-5.9-3.4
		c-0.7,0.9-1.8,1.6-3.2,1.8v6.6l5.9,5.9c0.2,0.2,0.2,0.9,0,1.1c-0.2,0.2-0.5,0.2-0.7,0.2s-0.5,0-0.7-0.2l-4.5-4.5v6.1
		c0,0.5-0.5,0.9-0.9,0.9c-0.5,0-0.9-0.5-0.9-0.9v-5.9L20,43.6c-0.2,0.2-0.5,0.2-0.7,0.2c-0.2,0-0.5,0-0.7-0.2
		c-0.2-0.2-0.2-0.9,0-1.1l5.5-5.7v-7c-1.4-0.2-2.5-0.9-3.2-1.8l-5.7,3.4l-2,8c0,0.5-0.2,0.7-0.7,0.7h-0.2c-0.5-0.2-0.7-0.7-0.5-1.1
		l1.6-6.4l-5.2,3.2c-0.2,0-0.2,0-0.5,0S7.3,35.5,7,35.2c-0.2-0.5-0.2-0.9,0.2-1.1l5.2-3l-6.1-1.6c-0.5,0-0.9-0.5-0.7-0.9
		c0-0.5,0.5-0.9,0.9-0.7l7.7,2l5.9-3.4C20,25.9,20,25.5,20,24.8c0-0.7,0-1.4,0.2-1.8l-5.9-3.4l-8,2H6.1c-0.2,0-0.7-0.2-0.7-0.7
		c0-0.5,0.2-0.7,0.7-0.9l6.4-1.6l-5.2-3C7,15.2,6.8,14.8,7,14.3c0.2-0.2,0.7-0.5,1.1-0.2l5,3l-1.6-6.1c-0.2-0.5,0-0.9,0.5-0.9
		c0.5-0.2,0.9,0,1.1,0.5l1.6,7.7l5.9,3.4c0.9-0.9,2-1.6,3.2-1.8V13l-5.7-5.7C18,7,18,6.4,18.2,6.1c0.2-0.2,0.9-0.2,1.1,0l4.5,4.5
		V4.8c0-0.5,0.5-0.9,0.9-0.9c0.5,0,0.9,0.5,0.9,0.9v6.1l4.5-4.5c0.2-0.2,0.9-0.2,1.1,0s0.2,0.9,0,1.1l-5.7,5.7V20
		c1.4,0.2,2.5,0.9,3.2,1.8l5.9-3.4l2-7.7c0-0.5,0.5-0.9,0.9-0.7c0.5,0,0.9,0.5,0.7,0.9L36.8,17l4.8-3c0.5-0.2,0.9-0.2,1.1,0.2
		c0.2,0.5,0.2,0.9-0.2,1.1l-5.2,3l6.1,1.6c0.5,0,0.9,0.5,0.7,0.9c0,0.5-0.2,0.7-0.7,0.7h-0.2l-7.7-2L29.5,23
		c0.2,0.5,0.5,1.1,0.5,1.8c0,0.7,0,1.4-0.2,1.8l5.9,3.4l8-2c0.5,0,0.7,0.2,0.9,0.7c0.2,0.2,0,0.7-0.2,1.1L38,31.4L43.2,34.3z"/>
</g>
</svg>
