<?xml version="1.0" encoding="utf-8"?>
<!-- Generator: Adobe Illustrator 27.2.0, SVG Export Plug-In . SVG Version: 6.00 Build 0)  -->
<svg version="1.1" id="Layer_1" xmlns="http://www.w3.org/2000/svg" xmlns:xlink="http://www.w3.org/1999/xlink" x="0px" y="0px"
	 viewBox="0 0 50 50" style="enable-background:new 0 0 50 50;" xml:space="preserve">
<style type="text/css">
	.st0{fill:none;}
	.st1{fill:#3C3C3B;}
</style>
<path id="Rectangle_4413" class="st0" d="M12,12h26v26H12V12z"/>
<g>
	<path class="st1" d="M48.9,34.6c-0.5,0-1.1,0.5-1.1,1v6.5c0,2.9-2.1,5.5-4.7,5.5H6.8c-2.6,0-4.7-2.4-4.7-5.5v-6.5
		c0-0.5-0.5-1-1.1-1s-1,0.5-1,1.1v6.5C0,46.4,3.2,50,6.8,50h36.3c3.7,0,6.8-3.4,6.8-7.9v-6.5C50,35.1,49.5,34.6,48.9,34.6z"/>
	<path class="st1" d="M22.4,35.7c0.8,0.8,1.6,1,2.6,1l0,0l0,0l0,0c1.1,0,1.8-0.3,2.6-1l8.9-8.9c0.5-0.5,0.5-1,0-1.6
		c-0.5-0.5-1.1-0.5-1.6,0L26,34.1v-33c0-0.5-0.5-1-1.1-1s-1.1,0.5-1.1,1v33L15,25.2c-0.5-0.5-1.1-0.5-1.6,0s-0.5,1,0,1.6L22.4,35.7z
		"/>
</g>
<rect x="0.5" class="st0" width="50" height="50"/>
</svg>
