<?xml version="1.0" encoding="utf-8"?>
<!-- Generator: Adobe Illustrator 27.2.0, SVG Export Plug-In . SVG Version: 6.00 Build 0)  -->
<svg version="1.1" id="Layer_1" xmlns="http://www.w3.org/2000/svg" xmlns:xlink="http://www.w3.org/1999/xlink" x="0px" y="0px"
	 viewBox="0 0 26 26" style="enable-background:new 0 0 26 26;" xml:space="preserve">
<style type="text/css">
	.st0{fill:none;}
	.st1{fill:#FF5533;}
</style>
<path id="Rectangle_4413" class="st0" d="M0,0h26v26H0V0z"/>
<g>
	<path class="st1" d="M22.1,16.7c-0.2,0-0.4,0.2-0.4,0.4v2.5c0,1.1-0.8,2.1-1.8,2.1H6.1c-1,0-1.8-0.9-1.8-2.1v-2.5
		c0-0.2-0.2-0.4-0.4-0.4s-0.4,0.2-0.4,0.4v2.5c0,1.6,1.2,3,2.6,3h13.8c1.4,0,2.6-1.3,2.6-3v-2.5C22.5,16.9,22.3,16.7,22.1,16.7z"/>
	<path class="st1" d="M12,17.1c0.3,0.3,0.6,0.4,1,0.4c0,0,0,0,0,0c0,0,0,0,0,0c0,0,0,0,0,0c0.4,0,0.7-0.1,1-0.4l3.4-3.4
		c0.2-0.2,0.2-0.4,0-0.6c-0.2-0.2-0.4-0.2-0.6,0l-3.4,3.4V3.9c0-0.2-0.2-0.4-0.4-0.4c-0.2,0-0.4,0.2-0.4,0.4v12.6l-3.4-3.4
		c-0.2-0.2-0.4-0.2-0.6,0c-0.2,0.2-0.2,0.4,0,0.6L12,17.1z"/>
</g>
</svg>
