<?xml version="1.0" encoding="UTF-8"?>
<svg id="ic-transaction-staked" xmlns="http://www.w3.org/2000/svg" viewBox="0 0 24 24">
  <defs>
    <style>
      .cls-1 {
        fill: none;
      }

      .cls-2 {
        fill: #f53;
      }
    </style>
  </defs>
  <path id="Path_18914" data-name="Path 18914" class="cls-2" d="m18,6v-1.15c-.08-1.66-1.48-2.93-3.14-2.86-1.43.07-2.61,1.14-2.83,2.56l-.04.03-.03-.03c-.25-1.64-1.77-2.77-3.41-2.52-1.47.22-2.56,1.48-2.56,2.97v1H2v6h2v10h16v-10h2v-6h-4Zm-4-.59v-.41c0-.55.45-1,1-1s1,.45,1,1v1h-2.59l.59-.59Zm-1,2.59v8h-2v-8h2Zm-5-3c0-.55.45-1,1-1s1,.45,1,1v.41l.59.59h-2.59v-1Zm-4,3h5v2h-5v-2Zm14,12H6v-8h3v6h6v-6h3v8Zm2-10h-5v-2h5v2Z"/>
  <path id="Rectangle_4527" data-name="Rectangle 4527" class="cls-1" d="m0,0h24v24H0V0Z"/>
</svg>