<?xml version="1.0" encoding="utf-8"?>
<!-- Generator: Adobe Illustrator 27.2.0, SVG Export Plug-In . SVG Version: 6.00 Build 0)  -->
<svg version="1.1" id="Layer_1" xmlns="http://www.w3.org/2000/svg" xmlns:xlink="http://www.w3.org/1999/xlink" x="0px" y="0px"
	 viewBox="0 0 50 50" style="enable-background:new 0 0 50 50;" xml:space="preserve">
<style type="text/css">
	.st0{fill:none;}
	.st1{fill:#FF5533;}
</style>
<path id="Rectangle_4413" class="st0" d="M12,12h26v26H12V12z"/>
<g>
	<path class="st1" d="M48.7,34.6c-0.5,0-1,0.5-1,1v6.5c0,3.1-2.1,5.5-4.7,5.5H6.9c-2.6,0-4.7-2.3-4.7-5.5v-6.5c0-0.5-0.5-1-1-1
		s-1,0.5-1,1v6.5c0,4.2,3.1,7.8,6.8,7.8h36.4c3.9,0,6.8-3.4,6.8-7.8v-6.5C50,35.2,49.5,34.6,48.7,34.6z"/>
	<path class="st1" d="M15,11.7l8.9-8.9v32.8c0,0.5,0.5,1,1,1s1-0.5,1-1V2.9l8.9,8.9c0.3,0.3,0.5,0.3,0.8,0.3c0.3,0,0.5,0,0.8-0.3
		c0.5-0.5,0.5-1,0-1.6L27.5,1c-0.8-0.8-1.6-1-2.6-1l0,0l0,0l0,0c-1,0-1.8,0.3-2.6,1l-8.9,9.1c-0.5,0.5-0.5,1,0,1.6
		C13.7,12,14.4,12,15,11.7z"/>
</g>
<rect x="-0.5" y="-0.1" class="st0" width="50" height="50"/>
</svg>
