<?xml version="1.0" encoding="utf-8"?>
<!-- Generator: Adobe Illustrator 27.2.0, SVG Export Plug-In . SVG Version: 6.00 Build 0)  -->
<svg version="1.1" id="ic-transaction-staked" xmlns="http://www.w3.org/2000/svg" xmlns:xlink="http://www.w3.org/1999/xlink"
	 x="0px" y="0px" viewBox="0 0 50 50" style="enable-background:new 0 0 50 50;" xml:space="preserve">
<style type="text/css">
	.st0{fill:none;}
	.st1{fill:#3C3C3B;}
</style>
<path id="Rectangle_4527" class="st0" d="M13,13h24v24H13V13z"/>
<path class="st1" d="M49.8,29.4c-0.3-0.5-0.8-0.8-1.4-0.8l-10,2.6l-7.5-3.9c0.3-0.8,0.6-1.3,0.6-2.1c0-0.8-0.3-1.6-0.6-2.3l7.5-4.2
	l10,2.6h0.3c0.6,0,0.8-0.3,1.1-0.8c0.3-0.5-0.3-1-0.8-1.3l-7.8-2.1l6.7-3.6c0.6-0.3,0.6-0.8,0.3-1.3c-0.3-0.3-0.8-0.5-1.4-0.3
	l-6.7,3.6l2.2-7.3c0.3-0.5-0.3-1-0.8-1.3c-0.6-0.3-1.1,0.3-1.4,0.8l-2.8,9.4l-7.5,4.2c-1.1-1-2.5-1.8-4.2-2.1v-8.6l7.8-6.8
	c0.3-0.3,0.3-1,0-1.3c-0.3-0.3-1.1-0.3-1.4,0l-5.8,5.5V1c0-0.5-0.6-1-1.1-1C24.5,0,24,0.5,24,1v7l-5.8-5.5c-0.3-0.3-1.1-0.3-1.4,0
	c-0.6,0.3-0.6,1,0,1.3l7.2,6.8v8.1c-1.7,0.3-3.1,1-3.9,2.1l-7.8-3.9L9.8,7.8C9.8,7.3,8.9,7,8.4,7C7.8,7.3,7.5,7.8,7.8,8.3l2.2,7.3
	L3.4,12c-0.6-0.3-1.1,0-1.4,0.5c-0.3,0.5,0,1,0.3,1.3l6.7,3.6l-8.1,1.8c-0.6,0.3-0.8,0.8-0.6,1.3c0,0.5,0.6,0.8,1.1,0.8h0.3l10-2.6
	l7.5,3.9c-0.3,0.8-0.6,1.3-0.6,2.1c0,0.8,0.3,1.6,0.3,2.1l-7.8,4.4l-9.7-2.3c-0.6-0.3-1.1,0.3-1.4,0.8s0.3,1,0.8,1.3l7.8,1.8
	l-6.4,3.4C1.7,36.5,1.7,37,2,37.5C2.3,37.8,2.5,38,2.8,38s0.3,0,0.6-0.3l6.7-3.6l-2.2,7.6c-0.3,0.5,0.3,1,0.8,1.3h0.3
	c0.6,0,0.8-0.3,1.1-0.8l2.8-9.4l7.5-3.9c1.1,1,2.5,2.1,3.9,2.3v8.3l-7.5,6.2c-0.3,0.3-0.3,1,0,1.3c0.3,0.3,0.6,0.3,0.8,0.3
	s0.6,0,0.8-0.3l5.6-5.2v7c0,0.5,0.6,1,1.1,1c0.6,0,1.1-0.5,1.1-1v-7.3l5.8,5.5c0.3,0.3,0.6,0.3,0.8,0.3c0.3,0,0.6,0,0.8-0.3
	c0.3-0.3,0.3-1,0-1.3l-7.5-7v-8.1c1.7-0.3,3.1-1,4.2-2.1l7.5,4.2l2.5,9.1c0,0.5,0.6,0.8,1.1,0.8h0.3c0.6-0.3,0.8-0.8,0.8-1.3
	l-2.2-7.3l6.4,3.6c0.3,0,0.3,0.3,0.6,0.3s0.8-0.3,0.8-0.5c0.3-0.5,0-1-0.3-1.3l-6.7-3.6l8.1-2.1C49.8,30.5,50.1,29.9,49.8,29.4z
	 M25.1,29.2c-2.5,0-4.5-1.8-4.5-4.2s1.9-4.2,4.5-4.2c2.5,0,4.5,1.8,4.5,4.2C29.5,27.3,27.6,29.2,25.1,29.2z"/>
<rect x="13" y="13" class="st0" width="24" height="24"/>
<rect class="st0" width="50" height="50"/>
</svg>
