<?xml version="1.0" encoding="utf-8"?>
<!-- Generator: Adobe Illustrator 28.1.0, SVG Export Plug-In . SVG Version: 6.00 Build 0)  -->
<svg version="1.1" id="ic-transaction-staked" xmlns="http://www.w3.org/2000/svg" xmlns:xlink="http://www.w3.org/1999/xlink"
	 x="0px" y="0px" viewBox="0 0 24 24" style="enable-background:new 0 0 24 24;" xml:space="preserve">
<style type="text/css">
	.st0{fill:none;}
	.st1{opacity:0.5;fill:#D1D5DB;}
</style>
<g>
	<path class="st0" d="M18.3,13L18.3,13L18.3,13z"/>
</g>
<path class="st0" d="M10.2,5.8l-0.6-1C9.5,4.5,9.2,4.2,8.9,4.1C8.8,4.1,8.6,4,8.5,4C8.3,4,8.1,4,8,4.1C7.3,4.5,7,5.2,7.3,5.8H10.2z"
	/>
<path class="st0" d="M16.9,4.9c-0.1-0.3-0.4-0.6-0.7-0.7C16,4.1,15.6,4,15.3,4.1s-0.6,0.3-0.8,0.6l-0.6,1h2.9
	C17,5.5,17,5.2,16.9,4.9z"/>
<rect x="5.9" y="10.1" class="st0" width="12.3" height="9.6"/>
<rect x="3.6" y="7.1" class="st0" width="17" height="1.6"/>
<g>
	<path class="st0" d="M10.2,5.8l-0.6-1C9.5,4.5,9.2,4.2,8.9,4.1C8.8,4.1,8.6,4,8.5,4C8.3,4,8.1,4,8,4.1C7.3,4.5,7,5.2,7.3,5.8H10.2z
		"/>
	<path class="st0" d="M16.9,4.9c-0.1-0.3-0.4-0.6-0.7-0.7C16,4.1,15.6,4,15.3,4.1s-0.6,0.3-0.8,0.6l-0.6,1h2.9
		C17,5.5,17,5.2,16.9,4.9z"/>
	<rect x="5.9" y="10.1" class="st0" width="12.3" height="9.6"/>
	<path class="st1" d="M22.2,5.8h-3.3c0.1-0.5,0.1-1-0.1-1.5C18.5,3.6,18,3,17.2,2.6s-1.7-0.5-2.5-0.2s-1.5,0.8-1.9,1.5L12.1,5
		l-0.7-1.2C11,3.2,10.3,2.7,9.5,2.4C8.6,2.1,7.7,2.2,7,2.6C5.6,3.2,5,4.5,5.2,5.8H1.9v4.4h1.9L3.9,22h16.3l-0.1-11.8h2.1
		C22.2,10.2,22.2,5.8,22.2,5.8z M14.5,4.7c0.2-0.3,0.5-0.5,0.8-0.6s0.7,0,1,0.1c0.3,0.2,0.6,0.4,0.7,0.7c0,0.3,0,0.6-0.1,0.9H14
		L14.5,4.7z M7.9,4.2c0.2-0.1,0.3-0.1,0.5-0.1c0.1,0,0.3,0,0.4,0.1c0.3,0.1,0.6,0.3,0.8,0.6l0.6,1H7.3C7,5.2,7.3,4.5,7.9,4.2z
		 M18.2,19.7H5.9v-9.6h12.3V19.7z M20.6,8.8h-17V7.1h17V8.8z"/>
</g>
<path class="st1" d="M13.7,13.2c-0.9-1.1-2-1.9-2.5-2.3c-0.4-0.3-0.4,0-0.4,0.1c0.1,0.5,0.3,1.5-1.1,3.1C8,16.4,9.2,18,10.4,18.8
	c0.5,0.4,1.2,0.3,1.2,0.3c0.1,0,0.3,0,0.3-0.1c-0.7-0.4-2.3-1.6-0.1-4.8c0,0-0.1,1.2,0.4,1.6c0.3,0.1,0.8-0.4,0.8-0.4
	s1.1,2.3-0.5,3.3c-0.1,0-0.1,0.1-0.3,0.1c0.1,0.1,0.3,0.1,0.3,0.1c0.8,0,1.7-0.5,2.3-1.7C15.6,15.9,14.8,14.3,13.7,13.2z"/>
</svg>
