<?xml version="1.0" encoding="utf-8"?>
<!-- Generator: Adobe Illustrator 27.2.0, SVG Export Plug-In . SVG Version: 6.00 Build 0)  -->
<svg version="1.1" id="Layer_1" xmlns="http://www.w3.org/2000/svg" xmlns:xlink="http://www.w3.org/1999/xlink" x="0px" y="0px"
	 viewBox="0 0 50 50" style="enable-background:new 0 0 50 50;" xml:space="preserve">
<style type="text/css">
	.st0{fill:none;}
	.st1{fill:#FF5533;}
</style>
<g id="Artboard">
	<g id="ic-update-liliac" transform="translate(2.000000, 2.000000)">
		<polygon id="Rectangle_4642" class="st0" points="-2,-2 48,-2 48,48 -2,48 		"/>
		<path id="Path_18962" class="st1" d="M30.5,19.2H43V6.8h-5v3c-6-7-16-8.8-24.2-4.5S1.5,18.8,3.5,27.8S13.8,43,23,43
			c5.2,0,10.5-2,14.2-5.8l-3.5-3.5c-4.5,4.5-11.2,5.8-17,3S7.5,28,8,21.8s5-11.5,11-13.2S31.5,9,35.2,14.2h-4.8V19.2z"/>
	</g>
</g>
<rect x="0.5" class="st0" width="50" height="50"/>
</svg>
