<?xml version="1.0" encoding="utf-8"?>
<!-- Generator: Adobe Illustrator 27.2.0, SVG Export Plug-In . SVG Version: 6.00 Build 0)  -->
<svg version="1.1" id="ic-transaction-staked" xmlns="http://www.w3.org/2000/svg" xmlns:xlink="http://www.w3.org/1999/xlink"
	 x="0px" y="0px" viewBox="0 0 24 24" style="enable-background:new 0 0 24 24;" xml:space="preserve">
<style type="text/css">
	.st0{fill:#FFFFFF;}
	.st1{fill:none;}
	.st2{fill:#FF5533;}
</style>
<g>
	<path class="st0" d="M18.3,13L18.3,13L18.3,13z"/>
</g>
<path class="st1" d="M10.2,5.8l-0.6-1C9.5,4.5,9.2,4.2,8.9,4.1C8.8,4.1,8.6,4,8.5,4C8.3,4,8.1,4,8,4.1C7.3,4.5,7,5.2,7.3,5.8H10.2z"
	/>
<path class="st1" d="M16.9,4.9c-0.1-0.3-0.4-0.6-0.7-0.7C16,4.1,15.6,4,15.3,4.1s-0.6,0.3-0.8,0.6l-0.6,1h2.9
	C17,5.5,17,5.2,16.9,4.9z"/>
<rect x="5.9" y="10.1" class="st1" width="12.3" height="9.6"/>
<rect x="3.6" y="7.1" class="st1" width="17" height="1.6"/>
<g>
	<g>
		<path class="st2" d="M20.1,11.2V5.7c0-1.2-2.6-1.9-5.2-1.9S9.8,4.5,9.8,5.7v3C9,8.5,7.9,8.4,6.9,8.4c-2.6,0-5.2,0.6-5.2,1.9v8
			c0,1.2,2.6,1.9,5.2,1.9s5.2-0.6,5.2-1.9v-0.9c0.3,0.1,0.5,0.1,0.8,0.2c0.8,1.6,2.5,2.7,4.4,2.7c2.7,0,4.9-2.2,4.9-4.9
			C22.2,13.6,21.4,12.1,20.1,11.2z M19.4,10.8L19.4,10.8L19.4,10.8L19.4,10.8z M10.5,6.7c0.9,0.6,2.7,0.9,4.4,0.9s3.5-0.3,4.4-0.9v1
			c0,0.4-1.6,1.2-4.4,1.2s-4.4-0.8-4.4-1.2V6.7z M15,4.6c2.9,0,4.4,0.8,4.4,1.2S17.8,7,15,7s-4.4-0.8-4.4-1.2
			C10.5,5.3,12.1,4.6,15,4.6z M10.5,8.7c0.9,0.6,2.7,0.9,4.4,0.9s3.5-0.3,4.4-0.9v1c0,0.1-0.2,0.4-1,0.7c-0.3-0.1-0.7-0.1-1.1-0.1
			c-0.8,0-1.6,0.2-2.3,0.6c-1.1,0-2.1-0.1-2.9-0.3v-0.3c0-0.6-0.6-1.1-1.5-1.4C10.5,8.9,10.5,8.7,10.5,8.7z M13,12.8
			c-0.3-0.1-0.7-0.1-1-0.2v-1.3c0.6,0.1,1.2,0.2,1.9,0.3C13.6,11.9,13.3,12.3,13,12.8z M11.4,12.3c0,0.4-1.6,1.2-4.4,1.2
			s-4.4-0.8-4.4-1.2v-1c0.9,0.6,2.7,0.9,4.4,0.9s3.5-0.3,4.4-0.9V12.3z M6.9,14.1c1.7,0,3.5-0.3,4.4-0.9v1c0,0.4-1.6,1.2-4.4,1.2
			s-4.4-0.8-4.4-1.2v-1C3.4,13.8,5.2,14.1,6.9,14.1z M2.5,15.3c0.9,0.6,2.7,0.9,4.4,0.9s3.5-0.3,4.4-0.9v1c0,0.4-1.6,1.2-4.4,1.2
			s-4.4-0.8-4.4-1.2V15.3z M6.9,9.1c2.9,0,4.4,0.8,4.4,1.2s-1.6,1.2-4.4,1.2s-4.4-0.8-4.4-1.2S4.1,9.1,6.9,9.1z M6.9,19.4
			c-2.9,0-4.4-0.8-4.4-1.2v-1c0.9,0.6,2.7,0.9,4.4,0.9s3.5-0.3,4.4-0.9v1C11.4,18.7,9.8,19.4,6.9,19.4z M12.1,16.6v-3.3
			c0.2,0,0.4,0.1,0.6,0.1c-0.2,0.5-0.3,1-0.3,1.6c0,0.1,0,0.1,0,0.2c0,0.5,0.1,1,0.2,1.5C12.4,16.7,12.2,16.6,12.1,16.6z M17.3,19.4
			c-2.3,0-4.2-1.9-4.2-4.2c0-0.1,0-0.1,0-0.2c0-0.6,0.2-1.2,0.4-1.7l0,0c0.7-1.4,2.1-2.3,3.7-2.3c2.3,0,4.2,1.9,4.2,4.2
			C21.5,17.6,19.6,19.4,17.3,19.4z"/>
	</g>
</g>
<g>
	<path class="st2" d="M19.4,16h-1.7c0,0,0,0,0,0.1c0.3,0.4,0.8,0.7,1.3,0.7h1.3l0,0v-0.7l0,0L19.4,16L19.4,16z"/>
	<path class="st2" d="M17.7,14.5C17.7,14.5,17.7,14.6,17.7,14.5l1.3,0.1h0.4h0.9l0,0v-0.7l0,0H19C18.5,13.8,18,14.1,17.7,14.5z"/>
	<g>
		<path class="st2" d="M15.1,14.6h1.7c0,0,0,0,0-0.1c-0.3-0.4-0.8-0.7-1.3-0.7h-1.3l0,0v0.7l0,0L15.1,14.6L15.1,14.6z"/>
		<path class="st2" d="M16.8,16.1C16.8,16.1,16.8,16,16.8,16.1L15.5,16h-0.4h-0.9l0,0v0.7l0,0h1.3C16,16.8,16.5,16.5,16.8,16.1z"/>
	</g>
	<path class="st2" d="M18.5,15.7h-2.4c-0.2,0-0.4-0.2-0.4-0.4l0,0c0-0.2,0.2-0.4,0.4-0.4h2.4c0.2,0,0.4,0.2,0.4,0.4l0,0
		C18.9,15.5,18.7,15.7,18.5,15.7z"/>
</g>
<rect class="st1" width="24" height="24"/>
</svg>
