<?xml version="1.0" encoding="utf-8"?>
<!-- Generator: Adobe Illustrator 27.2.0, SVG Export Plug-In . SVG Version: 6.00 Build 0)  -->
<svg version="1.1" id="Layer_1" xmlns="http://www.w3.org/2000/svg" xmlns:xlink="http://www.w3.org/1999/xlink" x="0px" y="0px"
	 viewBox="0 0 600 735" style="enable-background:new 0 0 600 735;" xml:space="preserve">
<style type="text/css">
	.st0{fill:#F1583A;}
</style>
<g>
	<path class="st0" d="M510.4,437.9l-165.2,0c-2.7,0-4.4,3-2.9,5.2c26.5,41,74.1,68.3,128.4,68.3h125.9c1.8,0,3.3-1.5,3.3-3.3v-66.9
		c0-1.8-1.5-3.3-3.3-3.3L510.4,437.9L510.4,437.9z"/>
	<path class="st0" d="M342.8,292.4c-1.7,2.5,0.3,5.9,3.3,5.9l126.3,0h38.1h85.7c2.1,0,3.9-1.7,3.9-3.9v-66.3c0-1.9-1.5-3.4-3.4-3.4
		H470.7C416.7,224.8,369.4,251.8,342.8,292.4z"/>
	<g>
		<path class="st0" d="M89.6,298.3l165.2,0c2.7,0,4.4-3,2.9-5.2c-26.5-41-74.1-68.3-128.4-68.3H3.3c-1.8,0-3.3,1.5-3.3,3.3V295
			c0,1.8,1.5,3.3,3.3,3.3L89.6,298.3L89.6,298.3z"/>
		<path class="st0" d="M257.2,443.8c1.7-2.5-0.3-5.9-3.3-5.9l-126.3,0H89.6H3.9c-2.1,0-3.9,1.7-3.9,3.9v66.3c0,1.9,1.5,3.4,3.4,3.4
			h125.8C183.3,511.5,230.6,484.4,257.2,443.8z"/>
	</g>
	<path class="st0" d="M453.8,403.3H153.8c-1.6,0-2.9-1.3-2.9-2.9v-64.5c0-1.6,1.3-2.9,2.9-2.9h299.9c1.6,0,2.9,1.3,2.9,2.9v64.5
		C456.7,402,455.4,403.3,453.8,403.3z"/>
</g>
</svg>
