<?xml version="1.0" encoding="utf-8"?>
<!-- Generator: Adobe Illustrator 27.4.0, SVG Export Plug-In . SVG Version: 6.00 Build 0)  -->
<svg version="1.1" id="ic_empty_Dark_transactions" xmlns="http://www.w3.org/2000/svg" xmlns:xlink="http://www.w3.org/1999/xlink"
	 x="0px" y="0px" viewBox="0 0 100 100" style="enable-background:new 0 0 100 100;" xml:space="preserve">
<style type="text/css">
	.st0{fill:none;}
	.st1{opacity:0.5;}
	.st2{fill:#D1D5DB;stroke:#D1D5DB;stroke-width:0.75;stroke-miterlimit:10;}
	.st3{fill:#D1D5DB;}
</style>
<path id="Rectangle_4697" class="st0" d="M0,0h100v100H0V0z"/>
<g class="st1">
	<path class="st2" d="M78.1,77.2c4.1,0,7.3-3.3,7.3-7.3v-44c0-4.1-3.3-7.4-7.3-7.4H67.9c-4.6-5.1-11-8.1-17.9-8.1s-13.4,3-17.9,8.1
		H21.9c-4.1,0-7.3,3.3-7.3,7.4v43.9c0,4.1,3.3,7.3,7.3,7.3h17.6l-1.1,3.6H38c-3,0-5.5,2.5-5.5,5.5v1.9c0,0.7,0.6,1.3,1.3,1.3h32.3
		c0.7,0,1.3-0.6,1.3-1.3v-1.9c0-3-2.4-5.5-5.5-5.5h-0.3l-1.2-3.7L78.1,77.2L78.1,77.2z M50,13.2c6.3,0,12.3,2.8,16.3,7.6
		c3.2,3.8,5,8.6,5,13.6c0,11.7-9.5,21.2-21.2,21.2s-21.3-9.5-21.3-21.2c0-1.2,0.1-2.5,0.3-3.7c0.7-3.7,2.2-7.1,4.6-10
		C37.7,15.9,43.7,13.2,50,13.2z M21.9,21.2h8.2c-0.2,0.2-0.3,0.6-0.5,0.8c-0.1,0.2-0.2,0.3-0.3,0.5c-0.3,0.6-0.6,1.2-0.9,1.7
		c-0.1,0.1-0.1,0.2-0.1,0.3c-0.2,0.5-0.4,1-0.6,1.5c-0.1,0.2-0.2,0.4-0.2,0.7c-0.2,0.4-0.2,0.8-0.4,1.2c-0.1,0.2-0.2,0.5-0.2,0.7
		c-0.1,0.4-0.2,0.8-0.2,1.2c-0.1,0.2-0.1,0.5-0.2,0.7c-0.1,0.4-0.2,0.8-0.2,1.3c0,0.2-0.1,0.4-0.1,0.6c-0.1,0.7-0.1,1.3-0.1,1.9
		c0,13.2,10.7,23.9,23.9,23.9s23.9-10.7,23.9-23.9c0-0.7,0-1.3-0.1-1.9c0-0.2-0.1-0.4-0.1-0.6c-0.1-0.4-0.1-0.8-0.2-1.3
		c0-0.2-0.1-0.5-0.2-0.7c-0.1-0.4-0.2-0.8-0.2-1.2c-0.1-0.2-0.1-0.5-0.2-0.7c-0.1-0.4-0.2-0.8-0.4-1.2c-0.1-0.2-0.2-0.4-0.2-0.7
		c-0.2-0.5-0.4-1-0.6-1.5c-0.1-0.1-0.1-0.2-0.2-0.3c-0.2-0.6-0.6-1.2-0.9-1.7c-0.1-0.2-0.2-0.3-0.3-0.5c-0.2-0.2-0.3-0.6-0.5-0.8H78
		c2.6,0,4.7,2.1,4.7,4.7v39.3H17.1V25.9C17.1,23.4,19.3,21.2,21.9,21.2z M17.1,69.8v-2h65.6v2c0,2.6-2.1,4.7-4.7,4.7H58.7l0,0H41.3
		l0,0H21.9C19.3,74.6,17.2,72.5,17.1,69.8L17.1,69.8z M64.9,86.3v0.6H35.1v-0.6c0-1.6,1.2-2.8,2.8-2.8H62
		C63.6,83.4,64.9,84.7,64.9,86.3L64.9,86.3z M58.9,80.8H41.1l1.2-3.7h15.4L58.9,80.8L58.9,80.8z"/>
	<path class="st3" d="M47.8,72.5h4.3c0.7,0,1.3-0.6,1.3-1.3c0-0.7-0.6-1.3-1.3-1.3h-4.3c-0.7,0-1.3,0.6-1.3,1.3
		C46.4,71.9,47.1,72.5,47.8,72.5z"/>
</g>
</svg>
