<?xml version="1.0" encoding="utf-8"?>
<!-- Generator: Adobe Illustrator 27.4.0, SVG Export Plug-In . SVG Version: 6.00 Build 0)  -->
<svg version="1.1" id="ic_empty_Dark_transactions" xmlns="http://www.w3.org/2000/svg" xmlns:xlink="http://www.w3.org/1999/xlink"
	 x="0px" y="0px" viewBox="0 0 100 100" style="enable-background:new 0 0 100 100;" xml:space="preserve">
<style type="text/css">
	.st0{opacity:0.5;fill:none;}
	.st1{opacity:0.5;}
	.st2{fill:#D1D5DB;stroke:#D1D5DB;stroke-width:0.75;stroke-miterlimit:10;}
	.st3{fill:#D1D5DB;}
</style>
<path id="Rectangle_4697" class="st0" d="M0,0h100v100H0V0z"/>
<g class="st1">
	<path class="st2" d="M83.9,82.8c4.9,0,8.8-4,8.8-8.8V21c0-4.9-4-8.9-8.8-8.9H71.6C66.1,6,58.3,2.4,50,2.4S33.9,6,28.4,12.2H16.1
		c-4.9,0-8.8,4-8.8,8.9v52.9c0,4.9,4,8.8,8.8,8.8h21.2L36,87.1h-0.5c-3.6,0-6.6,3-6.6,6.6V96c0,0.9,0.7,1.6,1.6,1.6h38.9
		c0.9,0,1.6-0.7,1.6-1.6v-2.3c0-3.6-2.9-6.6-6.6-6.6H64l-1.4-4.4L83.9,82.8L83.9,82.8z M50,5.6c7.6,0,14.8,3.4,19.7,9.2
		c3.8,4.6,6,10.4,6,16.4c0,14.1-11.5,25.6-25.6,25.6S24.4,45.3,24.4,31.2c0-1.5,0.1-3,0.4-4.4c0.8-4.4,2.7-8.5,5.6-12
		C35.2,8.9,42.4,5.6,50,5.6z M16.1,15.3H26c-0.2,0.3-0.4,0.7-0.6,1c-0.1,0.2-0.3,0.4-0.4,0.6c-0.4,0.7-0.7,1.4-1.1,2
		c-0.1,0.1-0.1,0.2-0.1,0.4c-0.3,0.6-0.5,1.2-0.7,1.8c-0.1,0.3-0.2,0.5-0.3,0.8c-0.2,0.5-0.3,1-0.5,1.5c-0.1,0.3-0.2,0.6-0.2,0.9
		c-0.1,0.5-0.2,1-0.3,1.4c-0.1,0.3-0.1,0.6-0.2,0.9c-0.1,0.5-0.2,1-0.2,1.6c0,0.2-0.1,0.5-0.1,0.7c-0.1,0.8-0.1,1.6-0.1,2.3
		C21.2,47.1,34.1,60,50,60s28.8-12.9,28.8-28.8c0-0.8,0-1.6-0.1-2.3c0-0.3-0.1-0.5-0.1-0.7c-0.1-0.5-0.1-1-0.2-1.6
		c0-0.3-0.1-0.6-0.2-0.9c-0.1-0.5-0.2-1-0.3-1.4c-0.1-0.3-0.1-0.6-0.2-0.9c-0.1-0.5-0.3-1-0.5-1.4c-0.1-0.3-0.2-0.5-0.3-0.8
		c-0.2-0.6-0.5-1.2-0.7-1.8c-0.1-0.1-0.1-0.2-0.2-0.4c-0.3-0.7-0.7-1.4-1.1-2c-0.1-0.2-0.3-0.4-0.4-0.6c-0.2-0.3-0.4-0.7-0.6-1h9.8
		c3.1,0,5.7,2.5,5.7,5.7v47.4H10.4V21C10.4,17.9,13,15.3,16.1,15.3z M10.4,73.9v-2.4h79.1v2.4c0,3.1-2.5,5.7-5.7,5.7H60.5
		c0,0,0,0,0,0h-21c0,0,0,0,0,0H16.1C13,79.6,10.5,77.1,10.4,73.9L10.4,73.9z M67.9,93.7v0.7H32.1v-0.7c0-1.9,1.5-3.4,3.4-3.4h29
		C66.4,90.3,67.9,91.8,67.9,93.7L67.9,93.7z M60.7,87.1H39.3l1.4-4.4h18.6L60.7,87.1L60.7,87.1z"/>
	<path class="st3" d="M47.3,77.1h5.2c0.9,0,1.6-0.7,1.6-1.6s-0.7-1.6-1.6-1.6h-5.2c-0.9,0-1.6,0.7-1.6,1.6S46.5,77.1,47.3,77.1z"/>
</g>
</svg>
