<?xml version="1.0" encoding="utf-8"?>
<!-- Generator: Adobe Illustrator 27.2.0, SVG Export Plug-In . SVG Version: 6.00 Build 0)  -->
<svg version="1.1" id="Layer_1" xmlns="http://www.w3.org/2000/svg" xmlns:xlink="http://www.w3.org/1999/xlink" x="0px" y="0px"
	 viewBox="0 0 340 370" style="enable-background:new 0 0 340 370;" xml:space="preserve">
<style type="text/css">
	.st0{fill:#FFFFFF;}
	.st1{fill:none;}
</style>
<path class="st0" d="M57.2,149.7c1.3,0,2.6-0.5,3.5-1.4c19.1-19,44.5-29.4,71.4-29.4c18.7,0,36.9,5.1,52.7,14.8
	c-1.6,3.3-2.6,7-2.6,11c0,13.8,11.3,25.1,25.1,25.1s25.1-11.3,25.1-25.1s-11.3-25.1-25.1-25.1c-6.3,0-12,2.4-16.4,6.2
	c-17.7-11-37.8-16.9-58.8-16.9c-29.6,0-57.4,11.4-78.5,32.3c-1.9,1.9-1.9,5,0,7C54.6,149.1,55.9,149.6,57.2,149.7L57.2,149.7z
	 M207.3,129.4c8.4,0,15.2,6.8,15.2,15.2c0,8.4-6.8,15.2-15.2,15.2c-8.4,0-15.2-6.8-15.2-15.2C192.1,136.2,198.9,129.4,207.3,129.4z"
	/>
<path class="st0" d="M106,317.2c-26-7.1-47.7-23.8-61.2-47.2c-9.4-16.2-14-34.5-13.5-53.1c3.7-0.2,7.4-1.2,10.8-3.1
	c12-6.9,16.1-22.3,9.2-34.2c-7-12-22.3-16.1-34.2-9.2C5,177.3,1,192.7,7.8,204.6c3.1,5.4,8.1,9.1,13.6,11
	c-0.7,20.8,4.3,41.3,14.8,59.4c14.8,25.6,38.6,44,67.2,51.7c0.4,0.1,0.9,0.2,1.3,0.2c2.2,0,4.2-1.4,4.8-3.7
	C110.2,320.7,108.7,317.9,106,317.2z M16.3,199.7c-4.2-7.3-1.7-16.6,5.5-20.7l0,0c2.4-1.4,5-2,7.5-2c5.3,0,10.3,2.7,13.1,7.6
	c4.2,7.3,1.7,16.6-5.5,20.7S20.4,206.9,16.3,199.7L16.3,199.7z"/>
<path class="st0" d="M233.2,187.4c-2.6,0.7-4.2,3.4-3.5,6.1c6.9,26.1,3.2,53.3-10.2,76.5c-9.4,16.2-22.9,29.4-39.2,38.2
	c-2.1-3.1-4.8-5.8-8.2-7.7c-5.8-3.4-12.6-4.2-19-2.5c-6.5,1.8-11.9,5.9-15.2,11.7c-3.4,5.8-4.2,12.6-2.5,19s5.9,11.9,11.7,15.2l0,0
	c3.8,2.2,8.2,3.4,12.5,3.4c2.2,0,4.4-0.3,6.6-0.9c6.5-1.8,11.9-5.9,15.2-11.7c3-5.3,3.9-11.4,2.8-17.4c18.3-9.8,33.5-24.4,44-42.5
	c14.8-25.6,18.8-55.5,11.3-84.1C238.6,188.3,235.9,186.7,233.2,187.4L233.2,187.4z M172.7,329.9c-2,3.5-5.3,6-9.2,7
	c-3.9,1-8,0.5-11.5-1.5l0,0c-3.5-2-6-5.3-7-9.2s-0.5-8,1.5-11.5c2-3.5,5.3-6,9.2-7s8-0.5,11.5,1.5s6,5.3,7,9.2
	C175.2,322.3,174.7,326.3,172.7,329.9z"/>
<path class="st0" d="M183.5,252.2c1.5-0.9,2.5-2.6,2.5-4.3v-56.5c0,0,0-0.2,0-0.2c0-0.8-0.2-1.5-0.6-2.2c-0.4-0.7-1-1.2-1.7-1.7
	c0,0-0.1-0.2-0.2-0.2l-48.9-28.3c-1.5-0.9-3.4-0.9-5,0l-48.9,28.2c0,0-0.2,0.2-0.2,0.2c-0.6,0.4-1.1,0.9-1.5,1.5
	c0,0-0.1,0.1-0.2,0.2c-0.4,0.7-0.6,1.4-0.6,2.2c0,0.1,0,0.2,0,0.2v56.5c0,1.8,1,3.4,2.5,4.3l48.9,28.3c0,0,0.2,0,0.2,0
	c0.6,0.3,1.4,0.6,2.2,0.6l0,0l0,0l0,0c0.8,0,1.6-0.2,2.2-0.6c0,0,0.2,0,0.2,0L183.5,252.2L183.5,252.2z M176.1,245l-39,22.6v-45.1
	l39-22.6V245z M127.2,267.6l-39-22.6v-45l39,22.6V267.6L127.2,267.6z M132.1,213.9l-39-22.6l39-22.6l39,22.6
	C171.1,191.3,132.1,213.9,132.1,213.9z"/>
<rect y="29.7" class="st1" width="340" height="340"/>
</svg>
