<?xml version="1.0" encoding="UTF-8"?>
<svg id="Layer_1" data-name="Layer 1" xmlns="http://www.w3.org/2000/svg" viewBox="0 0 340 407.28">
  <defs>
    <style>
      .cls-1 {
        fill: none;
      }

      .cls-1, .cls-2 {
        stroke-width: 0px;
      }

      .cls-3 {
        opacity: .25;
      }

      .cls-2 {
        fill: #d1d5db;
      }
    </style>
  </defs>
  <g class="cls-3">
    <path class="cls-1" d="m268.9,357.28l-76.1-83.3c-2.2-2.5-4.5-4.9.2-4.7,47.3-7.2,96,6.7,127.4,41l19.6,21.5V67.27H89.5l17.8,19.5c35.8,39.2,48,82.1,36.5,128.5,0,0-2.5,2.2-4.7-.2L38.4,104.77,4.1,67.27H0v187.5l41.3,45.2c2.2,2.5,4.5,4.9-.2,4.7-13.5,1.5-27.4,1.3-41.1-.8v103.4h91.4c-1.5-15.9-.4-32.3,3.6-48.5,0,0,2.5-2.2,4.7.2l44.1,48.3h170.8l-23.3-25.5-22.4-24.5Zm-58,34.9c-12.3,11.2-28.8,12.8-42.2-1.9L25.5,233.47c-13.4-14.7-12.6-33.5-.3-44.7,12.3-11.2,31-10.3,42.2,1.9l145.5,159.3c11.2,12.3,10.3,31-2,42.2Z"/>
    <path class="cls-2" d="m95,358.78c-4,16.2-5.2,32.6-3.6,48.5h52.4l-44.1-48.3c-2.3-2.5-4.7-.2-4.7-.2Z"/>
    <path class="cls-2" d="m340,331.78l-19.6-21.5c-31.3-34.3-80-48.3-127.4-41-4.7-.2-2.5,2.2-.2,4.7l76.1,83.3,22.4,24.5,23.3,25.5h25.4v-75.5Z"/>
    <path class="cls-2" d="m29.8.27c.1-.1.2-.2.3-.2-.1,0-.2.1-.3.2Z"/>
    <path class="cls-2" d="m29.2.77c.2-.2.4-.4.5-.5-.1.2-.3.4-.5.5Z"/>
    <path class="cls-2" d="m30,.07q.1-.1,0,0h0Z"/>
    <path class="cls-2" d="m29,.98q.1-.1.2-.2c-.1.2-.2.2-.2.2Z"/>
    <path class="cls-2" d="m139.1,215.07c2.2,2.5,4.7.2,4.7.2,11.5-46.5-.6-89.3-36.5-128.5l-17.8-19.5H4.1l34.3,37.5,100.7,110.3Z"/>
    <path class="cls-2" d="m41.1,304.57c4.7.2,2.5-2.2.2-4.7L0,254.77v49.1c13.7,2,27.6,2.3,41.1.7Z"/>
    <path class="cls-2" d="m67.4,190.68c-11.2-12.3-29.9-13.1-42.2-1.9-12.3,11.2-13.1,29.9.3,44.7l143.2,156.9c13.4,14.7,29.9,13.1,42.2,1.9s13.1-29.9,1.9-42.2L67.4,190.68Z"/>
  </g>
</svg>