<?xml version="1.0" encoding="utf-8"?>
<!-- Generator: Adobe Illustrator 27.4.0, SVG Export Plug-In . SVG Version: 6.00 Build 0)  -->
<svg version="1.1" id="ic_empty_Dark_transactions" xmlns="http://www.w3.org/2000/svg" xmlns:xlink="http://www.w3.org/1999/xlink"
	 x="0px" y="0px" viewBox="0 0 100 100" style="enable-background:new 0 0 100 100;" xml:space="preserve">
<style type="text/css">
	.st0{fill:none;}
	.st1{opacity:0.5;}
	.st2{fill-rule:evenodd;clip-rule:evenodd;fill:#D1D5DB;}
</style>
<path id="Rectangle_4697" class="st0" d="M0,0h100v100H0V0z"/>
<g class="st1">
	<g>
		<path class="st2" d="M86.48,83.15h6.74l2.35,9.51H17.14l2.35-9.51h6.74c0-4.64,0-9.28,0-13.92c0-2.42,0-4.83,0-7.25v-4.31
			l4.44,2.08v28.15c17.13,0,34.25,0,51.38,0V55.58H60.95c-1.06-1.19-2.4-2.39-4-3.61l-1.52-1.15h31.06V83.15z"/>
	</g>
	<g>
		<path class="st2" d="M75.11,40.64c0.9,1.68,1.82,3.38,2.77,5.09c0.29,0.53,0.59,1.05,0.88,1.58H63.94
			c-0.09-0.13-0.19-0.25-0.28-0.38c-0.1-0.13-0.19-0.26-0.29-0.39c-1.74-2.21-4.18-3.35-7.34-3.44h-7.81c-0.07,0-0.14,0-0.2,0
			c-0.43,0.01-0.82,0.03-1.16,0.07c-0.13,0.01-0.26,0.03-0.38,0.05l-0.23,0.04c-1.1,0.23-1.75,0.79-1.96,1.68l-0.02,0.11
			c-0.18,1.03,0.11,2.01,0.89,2.95c0.23,0.27,0.49,0.54,0.8,0.81c0.1,0.09,0.21,0.17,0.32,0.26l8.42,6.35
			c0.08,0.06,0.16,0.12,0.23,0.18c3.98,3.08,5.57,5.87,4.79,8.36c-0.8,2.55-2.49,3.37-5.06,2.47L29.34,54.57
			c-1.07-0.53-2.11-1.11-3.12-1.74c-4.63-2.9-8.48-6.85-11.57-11.87L4.43,24.38L22.49,5.45l7.65,12.41
			c1.82,2.78,4.65,4.46,8.48,5.03l20.53,3.01c0.1,0.01,0.19,0.02,0.29,0.04c5.78,0.96,10.74,5.36,14.86,13.18
			C74.57,39.62,74.84,40.13,75.11,40.64z"/>
	</g>
</g>
</svg>
