<?xml version="1.0" encoding="utf-8"?>
<!-- Generator: Adobe Illustrator 28.0.0, SVG Export Plug-In . SVG Version: 6.00 Build 0)  -->
<svg version="1.1" id="Layer_1" xmlns="http://www.w3.org/2000/svg" xmlns:xlink="http://www.w3.org/1999/xlink" x="0px" y="0px"
	 viewBox="0 0 161 161" style="enable-background:new 0 0 161 161;" xml:space="preserve">
<style type="text/css">
	.st0{opacity:0.999;}
	.st1{fill:#D1D5DB;}
</style>
<g id="img_Qr" class="st0">
	<path id="Path_279" class="st1" d="M76.8,22.9V7.5c-2.5,0-4.8,0-7.1,0.1c-0.2,0-0.8,0.8-0.8,1.2c-0.1,2.1,0,4.1,0,6.3h-7.5V0h23
		v15.3h7.9V0h7.5v22.9h-7.7v15.5h7.5V69h7.8v-7.4h7.5v15.2H92.1v8.6c0,1.6-0.1,3.4,0,5c0.1,1.3-0.4,1.7-1.7,1.6c-2-0.1-3.8,0-6.1,0
		v7.9h-7.5v7.5c-2.2,0-4.3,0.1-6.2,0c-1.2,0-1.5,0.3-1.5,1.5c0.1,2.1,0,4,0,6.2H77v7.6H61.5V100H69v-7.6h7.7V77.1H69v15.1h-7.5V69.5
		H69v-7.9h-7.7V46.5h7.5c0,2,0.1,3.9,0,5.9c-0.1,1.4,0.3,1.9,1.7,1.7c2.1-0.1,4,0,6.1,0v15.1h7.5V54.1c2.2,0,4.4-0.1,6.6,0
		c1,0,1.3-0.3,1.3-1.3v-5.3c0-1-0.3-1.3-1.3-1.3h-6.4v-23C81.9,22.9,79.3,22.8,76.8,22.9L76.8,22.9z"/>
	<path id="Path_280" class="st1" d="M53.8,0c0,0.7-0.1,1.3-0.1,2.1v49.6c0,1.6-0.4,2-2,2c-16.5-0.1-33.1,0-49.6,0
		c-0.7,0-1.3,0.1-2.1,0.1V0H53.8z M45.9,7.6c-0.5,0-1-0.1-1.4-0.1H9.1C7.8,7.5,7.5,8,7.5,9.2v35.4c0,0.4,0.1,0.9,0.1,1.3h38.3
		C45.9,45.9,45.9,7.6,45.9,7.6z"/>
	<path id="Path_281" class="st1" d="M161,53.7c-0.7,0-1.3-0.1-2.1-0.1h-49.6c-1.6,0-2-0.4-2-2c0.1-16.5,0-33.1,0-49.6
		c0-0.7-0.1-1.3-0.1-2.1H161V53.7z M153.3,45.9c0-0.7,0.1-1.2,0.1-1.7V9.3c0-1.5-0.5-1.7-1.9-1.7H115v38.3H153.3z"/>
	<path id="Path_282" class="st1" d="M0,107.2c0.7,0,1.3,0.1,2.1,0.1h49.7c1.6,0,2,0.4,2,2c-0.1,16.6,0,33.1,0,49.7
		c0,0.7,0.1,1.3,0.1,2.1H0.1C0,143,0,125.1,0,107.2z M45.9,115c-0.4,0-0.7-0.1-1-0.1H9c-1.3,0-1.4,0.7-1.4,1.6v35.1
		c0,1.4,0.4,1.9,1.9,1.9c11.6-0.1,23.2-0.1,34.8,0c1.5,0,2-0.3,2-1.9c-0.1-11.6,0-23.2,0-34.7C46,116.2,46,115.7,45.9,115z"/>
	<path id="Path_283" class="st1" d="M0,61.3h7.4v38.3H0V61.3z"/>
	<path id="Path_284" class="st1" d="M161,68.8h-15.2v-7.5H161V68.8z"/>
	<path id="Path_285" class="st1" d="M107.2,145.5v15.4h-7.5c0-5.1,0.1-10.3,0.1-15.5h-0.1C102.2,145.5,104.7,145.5,107.2,145.5z"/>
	<path id="Path_286" class="st1" d="M61.3,160.9v-7.5h15.4v7.5H61.3z"/>
	<path id="Path_287" class="st1" d="M161,153.4h-7.5v-7.9h7.5V153.4z"/>
	<path id="Path_288" class="st1" d="M161,84.2h-7.4v-7.5h7.4V84.2z"/>
	<path id="Path_289" class="st1" d="M161,130.1h-7.5v-7.5h7.5V130.1z"/>
	<path id="Path_290" class="st1" d="M122.6,160.9v-7.5h7.5v7.5H122.6z"/>
	<path id="Path_291" class="st1" d="M122.6,153.4h-7.5v-7.9h-8c0.1-3.4,0.1-6.8,0.2-10.2v-5.1H92.1v-7.5H115v-15.5h7.4v7.8h7.7
		c0,0.8,0.1,1.4,0.1,2v11.9c0,1.2,0.3,1.5,1.5,1.5h21.4v7.5h-30.6C122.6,143.2,122.6,148.3,122.6,153.4L122.6,153.4z"/>
	<path id="Path_292" class="st1" d="M138,99.6V92h-15.3v7.6H115v-7.8h-7.7c0-2.4,0-4.7,0.1-6.9c0-0.2,0.9-0.7,1.4-0.7h21.5V61.5h7.5
		v15.2h7.5v23C143.1,99.6,140.6,99.6,138,99.6L138,99.6z"/>
	<path id="Path_293" class="st1" d="M76.7,153.4v-7.9H61.5v-15.2h15.2v-7.9h7.5v7.8c2.1,0,4,0.1,6,0c1.3-0.1,1.7,0.3,1.7,1.6
		c-0.1,2,0,3.8,0,5.9h-7.7v15.5C81.6,153.4,79.2,153.4,76.7,153.4L76.7,153.4z"/>
	<path id="Path_294" class="st1" d="M84.2,99.7H92v7.5h7.7v7.5H84.3C84.3,109.7,84.3,104.6,84.2,99.7L84.2,99.7z"/>
	<path id="Path_295" class="st1" d="M138,115h-7.5V99.6h7.5V115z"/>
	<path id="Path_296" class="st1" d="M153.6,122.5h-15.4V115h15.4V122.5z"/>
	<path id="Path_297" class="st1" d="M115.1,99.6v7.5h-7.7v-7.5H115.1z"/>
	<path id="Path_298" class="st1" d="M99.6,99.5h-7.4v-7.3h7.4V99.5z"/>
	<path id="Path_299" class="st1" d="M99.8,145.5h-7.5v-7.3h7.5C99.7,140.6,99.7,143,99.8,145.5z"/>
	<path id="Path_300" class="st1" d="M45.8,84.1c0,2.2,0.1,4.4,0.1,6.6c0,1,0.3,1.4,1.3,1.3c2.1-0.1,4,0,6.2,0v7.4h-38V92h7.4V76.6
		h15.4V84C40.8,84.2,43.3,84.2,45.8,84.1L45.8,84.1z"/>
	<path id="Path_301" class="st1" d="M23,76.7h-7.4V61.4h15v7.3H23C22.9,71.4,22.9,74,23,76.7L23,76.7z"/>
	<path id="Path_302" class="st1" d="M61.3,61.2v7.5H38.5v-7.5C46.1,61.3,53.7,61.3,61.3,61.2L61.3,61.2z"/>
	<path id="Path_303" class="st1" d="M76.7,22.8v7.5H61.4v-7.5C66.6,22.9,71.7,22.9,76.7,22.8z"/>
	<path id="Path_304" class="st1" d="M76.7,53.7v-7.9h7.4v7.9H76.7z"/>
	<path id="Path_305" class="st1" d="M45.8,84.2v-7.4h7.7v7.3C50.9,84.1,48.3,84.1,45.8,84.2L45.8,84.2z"/>
	<path id="Path_306" class="st1" d="M145.5,153.1h-7.3v-7.4h7.3V153.1z"/>
	<path id="Path_307" class="st1" d="M38.3,15.5v22.6H15.5V15.5H38.3z"/>
	<path id="Path_308" class="st1" d="M122.9,15.4h22.7v22.7h-22.7C122.9,38.1,122.9,15.4,122.9,15.4z"/>
	<path id="Path_309" class="st1" d="M38.1,145.5H15.5v-22.7h22.6V145.5z"/>
</g>
</svg>
