<?xml version="1.0" encoding="utf-8"?>
<!-- Generator: Adobe Illustrator 28.0.0, SVG Export Plug-In . SVG Version: 6.00 Build 0)  -->
<svg version="1.1" id="ic_empty_masternode" xmlns="http://www.w3.org/2000/svg" xmlns:xlink="http://www.w3.org/1999/xlink"
	 x="0px" y="0px" viewBox="0 0 100 100" style="enable-background:new 0 0 100 100;" xml:space="preserve">
<style type="text/css">
	.st0{fill:#FFFFFF;}
	.st1{fill:#D1D5DB;}
	.st2{fill:none;}
</style>
<g id="Group_9022">
	<g id="Group_9020">
		<circle id="Ellipse_615" class="st0" cx="52" cy="16.4" r="8.4"/>
		<circle id="Ellipse_616" class="st0" cx="85.6" cy="79.4" r="8.4"/>
		<circle id="Ellipse_617" class="st0" cx="18.4" cy="79.4" r="8.4"/>
		<g id="Group_9019">
			<path id="Path_18976" class="st0" d="M39.2,53.2V71h-8V36.3L52,53.2l20.8-16.9V71h-8V53.2L52,63.6"/>
		</g>
	</g>
	<g id="Group_9021">
		<path id="Path_18977" class="st1" d="M30.2,34.2V72h10V55.3l3.9,3.2l1.3-1.6l-7.1-5.8V70h-6V38.4L52,54.5l19.8-16.1V52h2V34.2
			L52,52L30.2,34.2z"/>
		<path id="Path_18978" class="st1" d="M71.8,70h-6V51.1L52,62.3l-3.7-3L47,60.8l5,4l11.8-9.6V72h10v-8h-2V70z"/>
		<path id="Rectangle_4673" class="st1" d="M71.8,56h2v4h-2V56z"/>
		<path id="Path_18979" class="st1" d="M87.4,70.2c2.3-5,3.5-10.5,3.4-16c-0.1-17.8-12.2-33.3-29.4-37.6c0-0.1,0-0.1,0-0.2
			c0-5.2-4.2-9.4-9.4-9.4c-5.2,0-9.4,4.2-9.4,9.4c0,0.1,0,0.1,0,0.2c-20.8,5.2-33.4,26.2-28.3,47c0.6,2.3,1.3,4.5,2.3,6.6
			c-5.1,1-8.5,5.9-7.5,11c1,5.1,5.9,8.5,11,7.5c2.9-0.5,5.3-2.4,6.6-5c14.5,12.5,35.9,12.5,50.5,0c2.4,4.6,8,6.5,12.6,4.1
			s6.5-8,4.1-12.6C92.7,72.5,90.2,70.7,87.4,70.2z M52,9c4.1,0,7.4,3.3,7.4,7.4s-3.3,7.4-7.4,7.4s-7.4-3.3-7.4-7.4
			C44.6,12.3,47.9,9,52,9z M18.4,86.8c-4.1,0-7.4-3.3-7.4-7.4s3.3-7.4,7.4-7.4s7.4,3.3,7.4,7.4C25.8,83.5,22.5,86.8,18.4,86.8z
			 M52,91c-9,0-17.8-3.3-24.5-9.3c1.3-5-1.8-10.1-6.8-11.4c-0.6-0.2-1.3-0.3-2-0.3c-8.7-18.3-1-40.3,17.4-49c2.1-1,4.4-1.8,6.7-2.4
			c1.2,5,6.2,8.2,11.3,7c3.5-0.8,6.2-3.5,7-7c16.2,4.3,27.6,18.9,27.7,35.6c0,5.5-1.2,10.9-3.6,15.8c-5.2,0.2-9.2,4.5-9,9.7
			c0,0.7,0.1,1.3,0.3,2C69.8,87.7,61,91,52,91z M85.6,86.8c-4.1,0-7.4-3.3-7.4-7.4s3.3-7.4,7.4-7.4s7.4,3.3,7.4,7.4
			C93,83.5,89.7,86.8,85.6,86.8z"/>
	</g>
</g>
<path id="Rectangle_4674" class="st2" d="M0,0h100v100H0V0z"/>
</svg>
