<?xml version="1.0" encoding="utf-8"?>
<!-- Generator: Adobe Illustrator 27.9.0, SVG Export Plug-In . SVG Version: 6.00 Build 0)  -->
<svg version="1.1" id="Layer_1" xmlns="http://www.w3.org/2000/svg" xmlns:xlink="http://www.w3.org/1999/xlink" x="0px" y="0px"
	 viewBox="0 0 49 60" style="enable-background:new 0 0 49 60;" xml:space="preserve">
<style type="text/css">
	.st0{fill:#F1593B;}
	.st1{fill:#F1583A;}
</style>
<g>
	<path class="st0" d="M41.3,35.4H28.1c-0.2,0-0.3,0.2-0.2,0.4c2.1,3.2,5.9,5.3,10.3,5.3h10.1c0.2,0,0.3-0.1,0.3-0.3v-5.2
		c0-0.2-0.1-0.3-0.3-0.3L41.3,35.4L41.3,35.4z"/>
	<path class="st0" d="M27.9,24.2c-0.2,0.2,0,0.5,0.3,0.5h10.1h3h6.9c0.2,0,0.3-0.2,0.3-0.3v-5.1c0-0.2-0.1-0.3-0.3-0.3H38.2
		C33.8,19,30,21.1,27.9,24.2L27.9,24.2z"/>
	<g>
		<path class="st0" d="M7.6,24.6h13.2c0.2,0,0.3-0.2,0.2-0.4c-2.1-3.2-5.9-5.3-10.3-5.3H0.7c-0.2,0-0.3,0.2-0.3,0.3v5.2
			c0,0.2,0.1,0.3,0.3,0.3L7.6,24.6L7.6,24.6z"/>
		<path class="st0" d="M21.1,35.8c0.2-0.2,0-0.5-0.3-0.5H10.7h-3H0.8c-0.2,0-0.3,0.2-0.3,0.3v5.1c0,0.2,0.1,0.3,0.3,0.3h10.1
			C15.1,41,18.9,38.9,21.1,35.8L21.1,35.8z"/>
	</g>
	<path class="st1" d="M14.4,27.3h20.7c1.1,0,1.9,0.9,1.9,1.9v1.6c0,1.1-0.9,1.9-1.9,1.9H14.4c-1.1,0-1.9-0.9-1.9-1.9v-1.6
		C12.5,28.2,13.4,27.3,14.4,27.3z"/>
</g>
</svg>
