<?xml version="1.0" encoding="utf-8"?>
<!-- Generator: Adobe Illustrator 27.9.0, SVG Export Plug-In . SVG Version: 6.00 Build 0)  -->
<svg version="1.1" id="Layer_1" xmlns="http://www.w3.org/2000/svg" xmlns:xlink="http://www.w3.org/1999/xlink" x="0px" y="0px"
	 viewBox="0 0 300 100" style="enable-background:new 0 0 300 100;" xml:space="preserve">
<style type="text/css">
	.st0{fill:#FF5533;}
</style>
<g>
	<path class="st0" d="M137.8,57.9l-17.3,0c-0.3,0-0.5,0.3-0.3,0.5c2.8,4.3,7.7,7.1,13.4,7.1h13.2c0.2,0,0.3-0.2,0.3-0.3v-7
		c0-0.2-0.2-0.3-0.3-0.3L137.8,57.9L137.8,57.9z"/>
	<path class="st0" d="M120.3,42.7c-0.2,0.3,0,0.6,0.3,0.6l13.2,0h4h9c0.2,0,0.4-0.2,0.4-0.4V36c0-0.2-0.2-0.4-0.4-0.4h-13.2
		C128,35.6,123,38.5,120.3,42.7z"/>
	<g>
		<path class="st0" d="M93.8,43.3l17.3,0c0.3,0,0.5-0.3,0.3-0.5c-2.8-4.3-7.7-7.1-13.4-7.1H84.8c-0.2,0-0.3,0.2-0.3,0.3v7
			c0,0.2,0.2,0.3,0.3,0.3L93.8,43.3L93.8,43.3z"/>
		<path class="st0" d="M111.3,58.5c0.2-0.3,0-0.6-0.3-0.6l-13.2,0h-4h-9c-0.2,0-0.4,0.2-0.4,0.4v6.9c0,0.2,0.2,0.4,0.4,0.4h13.2
			C103.6,65.6,108.5,62.8,111.3,58.5z"/>
	</g>
	<path class="st0" d="M128.5,54.3h-24.7c-2,0-3.6-1.6-3.6-3.6v-0.1c0-2,1.6-3.6,3.6-3.6h24.7c2,0,3.6,1.6,3.6,3.6v0.1
		C132.2,52.7,130.5,54.3,128.5,54.3z"/>
	<path class="st0" d="M0.4,65.3V35.5h25.7c3.8,0,6.5,0.4,8.1,1.1c1.4,0.7,2.4,1.7,3,3.3c0.5,1.4,0.8,3.1,0.8,5.3
		c0,3.1-0.6,5.4-1.9,6.7c-0.7,0.7-2,1.3-3.8,1.7c-0.4,0.1-1.3,0.2-2.6,0.4c0.8,0,1.3,0.1,1.5,0.1c2.1,0.1,3.4,0.4,4,0.7
		c1.7,0.8,2.5,2.8,2.4,5.9v4.7h-9.2v-3.7c0-1.6-0.4-2.7-1.1-3.2c-0.5-0.3-1.2-0.5-2.1-0.5c-0.3,0-0.9,0-1.8,0h-14v7.5H0.4z
		 M9.4,50.5h14.2c2.2,0,3.7-0.3,4.4-0.8c0.6-0.4,0.9-1.3,0.9-2.7c0-1.7-0.3-2.8-0.8-3.4c-0.4-0.4-1.1-0.7-2-0.8c-0.3,0-1,0-2.1,0
		H9.4V50.5z"/>
	<path class="st0" d="M44.5,65.3V35.5h22.8c2.3,0,4,0,4.8,0.1c2.2,0.2,3.9,0.7,5,1.4c1.7,1.1,2.7,2.8,3.1,5c0.2,1.3,0.3,2.7,0.3,4.3
		c0,3.2-0.3,5.6-1,7.1c-0.9,1.9-2.2,3.2-4.1,3.8C74,57.7,71.6,58,68.1,58H53.5v7.3H44.5z M53.5,50.7h13.2c2,0,3.3-0.3,3.9-0.8
		c0.6-0.6,0.9-1.5,0.9-2.8c0-1.5-0.2-2.5-0.7-3.2c-0.4-0.5-1.1-0.9-2-1.1c-0.3-0.1-1-0.1-2.1-0.1H53.5V50.7z"/>
	<path class="st0" d="M152.2,65.3V35.5h9.1v11H182v-11h9.1v29.8H182V53.9h-20.6v11.4H152.2z"/>
	<path class="st0" d="M194.3,65.3l16.8-29.8h12.2l16.3,29.8h-9.9l-3-5.3h-19.2l-2.9,5.3H194.3z M210.7,53.8h12.8l-6.5-11.9
		L210.7,53.8z"/>
	<path class="st0" d="M242.8,65.3V35.5h9.1v29.8H242.8z"/>
	<path class="st0" d="M258.8,65.3V35.5h14.4l18.1,22.7l-0.2-22.7h8.6v29.8h-14.6l-17.8-22.4l0.3,22.4H258.8z"/>
</g>
</svg>
