<?xml version="1.0" encoding="utf-8"?>
<!-- Generator: Adobe Illustrator 28.0.0, SVG Export Plug-In . SVG Version: 6.00 Build 0)  -->
<svg version="1.1" id="Layer_1" xmlns="http://www.w3.org/2000/svg" xmlns:xlink="http://www.w3.org/1999/xlink" x="0px" y="0px"
	 viewBox="0 0 300 100" style="enable-background:new 0 0 300 100;" xml:space="preserve">
<style type="text/css">
	.st0{enable-background:new    ;}
	.st1{fill:#FF5533;}
	.st2{fill:#F0583A;}
	.st3{fill:#D1D5DB;}
</style>
<g>
	<g class="st0">
		<path class="st1" d="M1.4,72.2v-10h2.1c0.9,0,1.7,0.1,2.2,0.2c0.6,0.1,1,0.3,1.4,0.5c0.4,0.3,0.7,0.6,0.9,1
			c0.2,0.4,0.3,0.8,0.3,1.2c0,0.7-0.4,1.3-1.1,1.8c0.7,0.2,1.3,0.5,1.7,1c0.4,0.5,0.6,1,0.6,1.6c0,0.8-0.4,1.4-1.1,2
			c-0.5,0.3-1,0.6-1.5,0.7c-0.6,0.1-1.4,0.2-2.3,0.2H1.4z M3.5,66.5h0.7c0.8,0,1.3-0.1,1.7-0.4c0.4-0.2,0.5-0.6,0.5-1.1
			c0-0.5-0.2-0.8-0.6-1.1c-0.4-0.2-0.9-0.4-1.6-0.4H3.5V66.5z M3.5,70.8h1.3c0.9,0,1.6-0.1,2.1-0.4c0.5-0.3,0.7-0.7,0.7-1.1
			c0-0.4-0.2-0.8-0.7-1.1c-0.4-0.3-1.2-0.4-2.3-0.4H3.5V70.8z"/>
		<path class="st1" d="M13.9,62.2v8.6h4.1v1.4h-6.1v-10H13.9z"/>
		<path class="st1" d="M18.2,67.2c0-1.4,0.7-2.6,2.1-3.6c1.4-1,3.1-1.5,5.1-1.5c2,0,3.6,0.5,5.1,1.5c1.4,1,2.1,2.3,2.1,3.7
			c0,1.4-0.7,2.7-2.1,3.7c-1.4,1-3.1,1.5-5.2,1.5c-1.8,0-3.4-0.4-4.8-1.3C19,70.1,18.2,68.8,18.2,67.2z M20.3,67.2
			c0,1.1,0.5,2,1.5,2.7c1,0.7,2.2,1.1,3.5,1.1c1.4,0,2.7-0.4,3.7-1.1c1-0.7,1.5-1.6,1.5-2.7c0-1.1-0.5-2-1.5-2.7
			c-1-0.7-2.2-1.1-3.6-1.1c-1.4,0-2.6,0.4-3.6,1.1C20.8,65.3,20.3,66.1,20.3,67.2z"/>
		<path class="st1" d="M45,62.8v1.8c-1.2-0.7-2.4-1.1-3.7-1.1c-1.4,0-2.6,0.4-3.6,1.1c-1,0.7-1.5,1.6-1.5,2.7c0,1.1,0.5,1.9,1.5,2.7
			c1,0.7,2.2,1.1,3.6,1.1c0.7,0,1.4-0.1,1.9-0.3c0.3-0.1,0.6-0.2,0.9-0.4c0.3-0.1,0.6-0.3,1-0.5v1.8c-1.2,0.5-2.4,0.7-3.8,0.7
			c-2,0-3.7-0.5-5-1.5c-1.4-1-2.1-2.2-2.1-3.7c0-1.3,0.6-2.4,1.7-3.4c1.4-1.2,3.3-1.8,5.5-1.8C42.7,62,43.9,62.3,45,62.8z"/>
		<path class="st1" d="M49.7,66.2l5.4-4h2.8l-6.2,4.5l6.3,5.5h-2.8l-5-4.5l-0.4,0.3v4.2h-2.1v-10h2.1V66.2z"/>
		<path class="st1" d="M68.7,62.8v1.8c-1.2-0.7-2.4-1.1-3.7-1.1c-1.4,0-2.6,0.4-3.6,1.1c-1,0.7-1.5,1.6-1.5,2.7
			c0,1.1,0.5,1.9,1.5,2.7c1,0.7,2.2,1.1,3.6,1.1c0.7,0,1.4-0.1,1.9-0.3c0.3-0.1,0.6-0.2,0.9-0.4c0.3-0.1,0.6-0.3,1-0.5v1.8
			c-1.2,0.5-2.4,0.7-3.8,0.7c-2,0-3.7-0.5-5-1.5c-1.4-1-2.1-2.2-2.1-3.7c0-1.3,0.6-2.4,1.7-3.4c1.4-1.2,3.3-1.8,5.5-1.8
			C66.3,62,67.5,62.3,68.7,62.8z"/>
		<path class="st1" d="M73.4,66.1h5.9v-3.9h2.1v10h-2.1v-4.7h-5.9v4.7h-2.1v-10h2.1V66.1z"/>
		<path class="st1" d="M92.4,69.8h-5.9l-1.5,2.4h-2.2l6.8-10.7l6.6,10.7h-2.3L92.4,69.8z M91.5,68.4l-2-3.4l-2.1,3.4H91.5z"/>
		<path class="st1" d="M99.5,62.2v10h-2.1v-10H99.5z"/>
		<path class="st1" d="M102.4,72.2V61.5l10.1,7.7v-7h2.1v10.6l-10.1-7.6v7H102.4z"/>
		<path class="st1" d="M130.7,69.8h-5.9l-1.5,2.4H121l6.8-10.7l6.6,10.7h-2.3L130.7,69.8z M129.9,68.4l-2-3.4l-2.1,3.4H129.9z"/>
		<path class="st1" d="M138.8,63.6v8.6h-2.1v-8.6h-3.2v-1.4h8.4v1.4H138.8z"/>
		<path class="st1" d="M151.4,67.9l-4.5-5.7h2.4l3.2,4l3.2-4h2.4l-4.5,5.7v4.3h-2.1V67.9z"/>
		<path class="st1" d="M157.8,67.2c0-1.4,0.7-2.6,2.1-3.6c1.4-1,3.1-1.5,5.1-1.5c2,0,3.6,0.5,5.1,1.5c1.4,1,2.1,2.3,2.1,3.7
			c0,1.4-0.7,2.7-2.1,3.7c-1.4,1-3.1,1.5-5.2,1.5c-1.8,0-3.4-0.4-4.8-1.3C158.5,70.1,157.8,68.8,157.8,67.2z M159.9,67.2
			c0,1.1,0.5,2,1.5,2.7c1,0.7,2.2,1.1,3.5,1.1c1.4,0,2.7-0.4,3.7-1.1c1-0.7,1.5-1.6,1.5-2.7c0-1.1-0.5-2-1.5-2.7
			c-1-0.7-2.2-1.1-3.6-1.1c-1.4,0-2.6,0.4-3.6,1.1C160.4,65.3,159.9,66.1,159.9,67.2z"/>
		<path class="st1" d="M176.5,62.2v6c0,0.9,0.2,1.5,0.6,1.9c0.6,0.6,1.4,0.9,2.4,0.9c1.1,0,1.9-0.3,2.4-0.9c0.4-0.4,0.6-1,0.6-1.9
			v-6h2.1v6.5c0,1.1-0.5,1.9-1.4,2.6c-1,0.8-2.3,1.1-3.8,1.1c-1.5,0-2.7-0.4-3.7-1.1c-0.9-0.7-1.4-1.6-1.4-2.6v-6.5H176.5z"/>
		<path class="st1" d="M192.1,68l4.3,4.3h-2.5l-3.9-4.1h-0.4v4.1h-2.1v-10h2.4c1.8,0,3.1,0.2,3.9,0.7c0.9,0.6,1.3,1.3,1.3,2.2
			c0,0.7-0.3,1.3-0.8,1.8C193.8,67.5,193.1,67.8,192.1,68z M189.5,66.8h0.7c2,0,3-0.5,3-1.6c0-1-1-1.5-2.9-1.5h-0.7V66.8z"/>
		<path class="st1" d="M210.2,63.6h-4.8V66h4.6v1.4h-4.6v4.8h-2.1v-10h6.9V63.6z"/>
		<path class="st1" d="M214.2,62.2v10h-2.1v-10H214.2z"/>
		<path class="st1" d="M217.1,72.2V61.5l10.1,7.7v-7h2.1v10.6l-10.1-7.6v7H217.1z"/>
		<path class="st1" d="M239.4,67h5.7v0.3c0,0.8-0.1,1.4-0.4,2c-0.2,0.5-0.6,1-1.2,1.5c-1.3,1-2.9,1.6-4.9,1.6c-1.9,0-3.6-0.5-5-1.5
			c-1.4-1-2.1-2.2-2.1-3.7c0-1.5,0.7-2.7,2.1-3.7c1.4-1,3.1-1.5,5.1-1.5c1.1,0,2.1,0.2,3,0.5c0.9,0.3,1.8,0.8,2.6,1.6l-1.5,1
			c-1.1-1.1-2.5-1.6-4.1-1.6c-1.5,0-2.7,0.4-3.7,1.1c-1,0.7-1.5,1.6-1.5,2.7c0,1.1,0.6,2,1.7,2.8c1,0.7,2.1,1,3.3,1
			c1,0,1.9-0.3,2.8-0.8c0.8-0.5,1.3-1.1,1.4-1.8h-3.4V67z"/>
		<path class="st1" d="M254.9,63.6h-5.5V66h5.4v1.4h-5.4v3.4h5.5v1.4h-7.6v-10h7.6V63.6z"/>
		<path class="st1" d="M261.9,68l4.3,4.3h-2.5l-3.9-4.1h-0.4v4.1h-2.1v-10h2.4c1.8,0,3.1,0.2,3.9,0.7c0.9,0.6,1.3,1.3,1.3,2.2
			c0,0.7-0.3,1.3-0.8,1.8C263.5,67.5,262.8,67.8,261.9,68z M259.3,66.8h0.7c2,0,3-0.5,3-1.6c0-1-1-1.5-2.9-1.5h-0.7V66.8z"/>
		<path class="st1" d="M271.4,63.6v8.6h-2.1v-8.6h-3.2v-1.4h8.4v1.4H271.4z"/>
		<path class="st1" d="M278.1,62.2v10H276v-10H278.1z"/>
		<path class="st1" d="M283.1,68.2v4.1H281v-10h2.4c1.2,0,2,0.1,2.6,0.2c0.6,0.1,1.1,0.3,1.6,0.7c0.8,0.6,1.2,1.3,1.2,2.1
			c0,0.9-0.4,1.6-1.3,2.2c-0.8,0.5-2,0.8-3.4,0.8H283.1z M283.1,66.8h0.8c1.9,0,2.9-0.5,2.9-1.6c0-1-1-1.6-3-1.6h-0.7V66.8z"/>
		<path class="st1" d="M298.3,63.7l-1.7,0.7c-0.3-0.4-0.6-0.7-0.9-0.8c-0.3-0.1-0.7-0.2-1.2-0.2c-0.6,0-1.1,0.1-1.4,0.4
			c-0.4,0.2-0.6,0.5-0.6,0.9c0,0.5,0.5,0.9,1.5,1.2l1.4,0.4c1.1,0.3,1.9,0.7,2.5,1.2c0.5,0.5,0.8,1.1,0.8,1.7c0,0.9-0.4,1.7-1.3,2.3
			c-0.9,0.6-1.9,0.9-3.2,0.9c-1.2,0-2.2-0.3-3-0.8c-0.8-0.5-1.2-1.2-1.4-2.2l2.1-0.3c0.1,0.6,0.3,1,0.5,1.2c0.4,0.4,1.1,0.7,1.9,0.7
			c0.6,0,1.2-0.2,1.6-0.5c0.4-0.3,0.6-0.7,0.6-1.2c0-0.2,0-0.4-0.1-0.5c-0.1-0.2-0.2-0.3-0.3-0.4c-0.2-0.1-0.4-0.3-0.6-0.4
			c-0.2-0.1-0.5-0.2-0.9-0.3l-1.3-0.4c-1.9-0.6-2.8-1.4-2.8-2.5c0-0.8,0.4-1.4,1.2-1.9c0.8-0.5,1.8-0.8,3-0.8
			C296.1,62,297.4,62.6,298.3,63.7z"/>
	</g>
	<g>
		<path class="st2" d="M137.6,49.4l-17.1,0c-0.3,0-0.5,0.3-0.3,0.5c2.7,4.2,7.7,7.1,13.3,7.1h13c0.2,0,0.3-0.2,0.3-0.3v-6.9
			c0-0.2-0.2-0.3-0.3-0.3L137.6,49.4L137.6,49.4z"/>
		<path class="st2" d="M120.2,34.3c-0.2,0.3,0,0.6,0.3,0.6l13.1,0h3.9h8.9c0.2,0,0.4-0.2,0.4-0.4v-6.9c0-0.2-0.2-0.4-0.4-0.4h-13
			C127.8,27.3,122.9,30.1,120.2,34.3z"/>
		<g>
			<path class="st2" d="M94,34.9l17.1,0c0.3,0,0.5-0.3,0.3-0.5c-2.7-4.2-7.7-7.1-13.3-7.1H85c-0.2,0-0.3,0.2-0.3,0.3v6.9
				c0,0.2,0.2,0.3,0.3,0.3L94,34.9L94,34.9z"/>
			<path class="st2" d="M111.3,50c0.2-0.3,0-0.6-0.3-0.6l-13.1,0H94h-8.9c-0.2,0-0.4,0.2-0.4,0.4v6.9c0,0.2,0.2,0.4,0.4,0.4h13
				C103.7,57,108.6,54.2,111.3,50z"/>
		</g>
		<path class="st1" d="M129.7,45.8h-27.2c-1.2,0-2.3-1-2.3-2.3v-2.8c0-1.2,1-2.3,2.3-2.3h27.2c1.2,0,2.3,1,2.3,2.3v2.8
			C132,44.8,131,45.8,129.7,45.8z"/>
		<path class="st3" d="M1.4,56.7V27.1h25.5c3.8,0,6.5,0.4,8,1.1c1.4,0.6,2.4,1.7,3,3.2c0.5,1.3,0.8,3.1,0.8,5.3
			c0,3.1-0.6,5.3-1.9,6.6c-0.7,0.7-1.9,1.3-3.7,1.7c-0.4,0.1-1.3,0.2-2.6,0.4c0.8,0,1.2,0.1,1.5,0.1c2.1,0.1,3.4,0.4,4,0.7
			c1.7,0.8,2.5,2.8,2.4,5.8v4.7h-9.1V53c0-1.6-0.4-2.7-1.1-3.2c-0.5-0.3-1.2-0.5-2-0.5c-0.3,0-0.9,0-1.8,0H10.3v7.5H1.4z M10.3,42
			h14.1c2.2,0,3.7-0.3,4.3-0.8c0.6-0.4,0.8-1.3,0.8-2.7c0-1.7-0.3-2.8-0.8-3.3c-0.4-0.4-1.1-0.7-2-0.8c-0.3,0-1,0-2.1,0H10.3V42z"/>
		<path class="st3" d="M45.1,56.7V27.1h22.6c2.3,0,3.9,0,4.8,0.1c2.2,0.2,3.8,0.7,5,1.4c1.6,1.1,2.7,2.8,3,5
			c0.2,1.3,0.3,2.7,0.3,4.3c0,3.2-0.3,5.5-1,7.1c-0.9,1.9-2.2,3.2-4.1,3.7c-1.4,0.4-3.8,0.6-7.2,0.6H54.1v7.3H45.1z M54.1,42.2h13.1
			c2,0,3.3-0.3,3.8-0.8c0.6-0.6,0.9-1.5,0.9-2.7c0-1.5-0.2-2.5-0.7-3.2c-0.4-0.5-1.1-0.9-2-1.1c-0.3-0.1-1-0.1-2.1-0.1H54.1V42.2z"
			/>
		<path class="st3" d="M151.9,56.7V27.1h9V38h20.4V27.1h9v29.5h-9V45.3h-20.4v11.3H151.9z"/>
		<path class="st3" d="M193.6,56.7l16.6-29.5h12.1l16.2,29.5h-9.8l-2.9-5.3h-19.1l-2.8,5.3H193.6z M209.9,45.3h12.7l-6.4-11.8
			L209.9,45.3z"/>
		<path class="st3" d="M241.7,56.7V27.1h9v29.5H241.7z"/>
		<path class="st3" d="M257.5,56.7V27.1h14.3l17.9,22.5l-0.2-22.5h8.5v29.5h-14.4l-17.7-22.2l0.3,22.2H257.5z"/>
	</g>
</g>
</svg>
