<?xml version="1.0" encoding="utf-8"?>
<!-- Generator: Adobe Illustrator 28.0.0, SVG Export Plug-In . SVG Version: 6.00 Build 0)  -->
<svg version="1.1" id="ic-transaction-staked" xmlns="http://www.w3.org/2000/svg" xmlns:xlink="http://www.w3.org/1999/xlink"
	 x="0px" y="0px" viewBox="0 0 50 50" style="enable-background:new 0 0 50 50;" xml:space="preserve">
<style type="text/css">
	.st0{fill:#D1D5DB;}
	.st1{fill:none;}
</style>
<path class="st0" d="M41.9,23.3V11.9c0-2.5-5.4-4-10.8-4s-10.6,1.5-10.6,4v6.2c-1.7-0.4-4-0.6-6-0.6c-5.4,0-10.8,1.2-10.8,4v16.7
	c0,2.5,5.4,4,10.8,4s10.8-1.2,10.8-4v-1.9c0.6,0.2,1,0.2,1.7,0.4c1.7,3.3,5.2,5.6,9.2,5.6c5.6,0,10.2-4.6,10.2-10.2
	C46.3,28.3,44.6,25.2,41.9,23.3L41.9,23.3z M40.4,22.5L40.4,22.5z M21.9,14c1.9,1.2,5.6,1.9,9.2,1.9s7.3-0.6,9.2-1.9v2
	c0,0.8-3.3,2.5-9.2,2.5s-9.2-1.7-9.2-2.5C21.9,16,21.9,14,21.9,14z M31.3,9.6c6,0,9.2,1.7,9.2,2.5s-3.3,2.5-9.2,2.5
	s-9.2-1.7-9.2-2.5C21.9,11.1,25.2,9.6,31.3,9.6z M21.9,18.1c1.9,1.2,5.6,1.9,9.2,1.9s7.3-0.6,9.2-1.9v2.1c0,0.2-0.4,0.8-2.1,1.5
	c-0.6-0.2-1.5-0.2-2.3-0.2c-1.7,0-3.3,0.4-4.8,1.2c-2.3,0-4.4-0.2-6-0.6v-0.6c0-1.2-1.2-2.3-3.1-2.9L21.9,18.1L21.9,18.1z
	 M27.1,26.7c-0.6-0.2-1.5-0.2-2.1-0.4v-2.7c1.2,0.2,2.5,0.4,4,0.6C28.4,24.8,27.7,25.6,27.1,26.7L27.1,26.7z M23.8,25.6
	c0,0.8-3.3,2.5-9.2,2.5s-9.2-1.7-9.2-2.5v-2.1c1.9,1.2,5.6,1.9,9.2,1.9s7.3-0.6,9.2-1.9V25.6z M14.4,29.4c3.5,0,7.3-0.6,9.2-1.9v2.1
	c0,0.8-3.3,2.5-9.2,2.5s-9.2-1.7-9.2-2.5v-2.1C7.1,28.8,10.8,29.4,14.4,29.4z M5.2,31.9c1.9,1.2,5.6,1.9,9.2,1.9s7.3-0.6,9.2-1.9V34
	c0,0.8-3.3,2.5-9.2,2.5S5.2,34.8,5.2,34V31.9L5.2,31.9z M14.4,19c6,0,9.2,1.7,9.2,2.5S20.2,24,14.4,24s-9.2-1.7-9.2-2.5
	S8.6,19,14.4,19z M14.4,40.4c-6,0-9.2-1.7-9.2-2.5v-2.1c1.9,1.2,5.6,1.9,9.2,1.9s7.3-0.6,9.2-1.9v2.1C23.8,39,20.4,40.4,14.4,40.4z
	 M25.2,34.6v-6.9c0.4,0,0.8,0.2,1.2,0.2c-0.4,1-0.6,2.1-0.6,3.3v0.4c0,1,0.2,2.1,0.4,3.1C25.8,34.8,25.4,34.6,25.2,34.6L25.2,34.6z
	 M36.1,40.4c-4.8,0-8.8-4-8.8-8.8v-0.4c0-1.2,0.4-2.5,0.8-3.5l0,0c1.5-2.9,4.4-4.8,7.7-4.8c4.8,0,8.8,4,8.8,8.8
	C44.8,36.7,40.8,40.4,36.1,40.4z"/>
<g>
	<path class="st0" d="M40.4,33.3h-3.5v0.2c0.6,0.8,1.7,1.5,2.7,1.5h2.7v-1.5l0,0L40.4,33.3L40.4,33.3L40.4,33.3z"/>
	<path class="st0" d="M36.9,30.2C36.9,30.2,36.9,30.4,36.9,30.2l2.7,0.2h2.7V29h-2.7C38.5,28.8,37.5,29.4,36.9,30.2z"/>
	<g>
		<path class="st0" d="M31.5,30.4H35v-0.2c-0.6-0.8-1.7-1.5-2.7-1.5h-2.7v1.5l0,0L31.5,30.4L31.5,30.4L31.5,30.4z"/>
		<path class="st0" d="M35,33.5C35,33.5,35,33.3,35,33.5l-2.7-0.2h-2.7v1.5h2.7C33.3,35,34.4,34.4,35,33.5z"/>
	</g>
	<path class="st0" d="M38.5,32.7h-5c-0.4,0-0.8-0.4-0.8-0.8l0,0c0-0.4,0.4-0.8,0.8-0.8h5c0.4,0,0.8,0.4,0.8,0.8l0,0
		C39.4,32.3,39,32.7,38.5,32.7z"/>
</g>
<rect class="st1" width="50" height="50"/>
</svg>
