<?xml version="1.0" encoding="utf-8"?>
<!-- Generator: Adobe Illustrator 28.0.0, SVG Export Plug-In . SVG Version: 6.00 Build 0)  -->
<svg version="1.1" id="Layer_1" xmlns="http://www.w3.org/2000/svg" xmlns:xlink="http://www.w3.org/1999/xlink" x="0px" y="0px"
	 viewBox="0 0 340 370" style="enable-background:new 0 0 340 370;" xml:space="preserve">
<style type="text/css">
	.st0{opacity:0.25;}
	.st1{fill:none;}
	.st2{fill:#D1D5DB;}
</style>
<g class="st0">
	<path class="st1" d="M268.9,319.7l-76.1-83.3c-2.2-2.5-4.5-4.9,0.2-4.7c47.3-7.2,96,6.7,127.4,41l19.6,21.5V29.7H89.5l17.8,19.5
		c35.8,39.2,48,82.1,36.5,128.5c0,0-2.5,2.2-4.7-0.2L38.4,67.2L4.1,29.7H0v187.5l41.3,45.2c2.2,2.5,4.5,4.9-0.2,4.7
		c-13.5,1.5-27.4,1.3-41.1-0.8v103.4h91.4c-1.5-15.9-0.4-32.3,3.6-48.5c0,0,2.5-2.2,4.7,0.2l44.1,48.3h170.8l-23.3-25.5L268.9,319.7
		z M210.9,354.6c-12.3,11.2-28.8,12.8-42.2-1.9L25.5,195.9c-13.4-14.7-12.6-33.5-0.3-44.7c12.3-11.2,31-10.3,42.2,1.9l145.5,159.3
		C224.1,324.7,223.2,343.4,210.9,354.6z"/>
	<path class="st2" d="M95,321.2c-4,16.2-5.2,32.6-3.6,48.5h52.4l-44.1-48.3C97.4,318.9,95,321.2,95,321.2z"/>
	<path class="st2" d="M340,294.2l-19.6-21.5c-31.3-34.3-80-48.3-127.4-41c-4.7-0.2-2.5,2.2-0.2,4.7l76.1,83.3l22.4,24.5l23.3,25.5
		H340V294.2z"/>
	<path class="st2" d="M29.8-37.3c0.1-0.1,0.2-0.2,0.3-0.2C30-37.5,29.9-37.4,29.8-37.3z"/>
	<path class="st2" d="M29.2-36.8c0.2-0.2,0.4-0.4,0.5-0.5C29.6-37.1,29.4-36.9,29.2-36.8z"/>
	<path class="st2" d="M30-37.5C30.1-37.6,30.1-37.6,30-37.5L30-37.5z"/>
	<path class="st2" d="M29-36.6c0.1-0.1,0.1-0.1,0.2-0.2C29.1-36.6,29-36.6,29-36.6z"/>
	<path class="st2" d="M29.2-36.7C29.2-36.8,29.2-36.8,29.2-36.7C29.2-36.8,29.2-36.8,29.2-36.7z"/>
	<path class="st2" d="M139.1,177.5c2.2,2.5,4.7,0.2,4.7,0.2c11.5-46.5-0.6-89.3-36.5-128.5L89.5,29.7H4.1l34.3,37.5L139.1,177.5z"/>
	<path class="st2" d="M41.1,267c4.7,0.2,2.5-2.2,0.2-4.7L0,217.2v49.1C13.7,268.3,27.6,268.6,41.1,267z"/>
	<path class="st2" d="M67.4,153.1c-11.2-12.3-29.9-13.1-42.2-1.9c-12.3,11.2-13.1,29.9,0.3,44.7l143.2,156.9
		c13.4,14.7,29.9,13.1,42.2,1.9c12.3-11.2,13.1-29.9,1.9-42.2L67.4,153.1z"/>
</g>
</svg>
